<?xml version="1.0" encoding="UTF-8" standalone="no"?>
<!DOCTYPE svg PUBLIC "-//W3C//DTD SVG 1.1//EN"
 "http://www.w3.org/Graphics/SVG/1.1/DTD/svg11.dtd">
<!-- Generated by graphviz version 2.26.3 (20100126.1600)
 -->
<!-- Title: controllers_diagram Pages: 1 -->
<svg width="955pt" height="1103pt"
 viewBox="0.00 0.00 955.00 1103.00" xmlns="http://www.w3.org/2000/svg" xmlns:xlink="http://www.w3.org/1999/xlink">
<g id="graph1" class="graph" transform="scale(1 1) rotate(0) translate(4 1099)">
<title>controllers_diagram</title>
<polygon fill="white" stroke="white" points="-4,5 -4,-1099 952,-1099 952,5 -4,5"/>
<!-- _diagram_info -->
<g id="node1" class="node"><title>_diagram_info</title>
<text text-anchor="start" x="450" y="-225.3" font-family="Times Roman,serif" font-size="13.00">Controllers diagram</text>
<text text-anchor="start" x="450" y="-208.3" font-family="Times Roman,serif" font-size="13.00">Date: May 31 2012 &#45; 16:34</text>
<text text-anchor="start" x="450" y="-191.3" font-family="Times Roman,serif" font-size="13.00">Migration version: 20120528205434</text>
<text text-anchor="start" x="450" y="-174.3" font-family="Times Roman,serif" font-size="13.00">Generated by RailRoady 1.0.7</text>
<text text-anchor="start" x="450" y="-157.3" font-family="Times Roman,serif" font-size="13.00">http://railroady.prestonlee.com</text>
</g>
<!-- UserTypesController -->
<g id="node2" class="node"><title>UserTypesController</title>
<polyline fill="none" stroke="black" points="622,-274.5 753,-274.5 "/>
<path fill="none" stroke="black" d="M753,-274.5C759,-274.5 765,-280.5 765,-286.5"/>
<polyline fill="none" stroke="black" points="765,-286.5 765,-472.5 "/>
<path fill="none" stroke="black" d="M765,-472.5C765,-478.5 759,-484.5 753,-484.5"/>
<polyline fill="none" stroke="black" points="753,-484.5 622,-484.5 "/>
<path fill="none" stroke="black" d="M622,-484.5C616,-484.5 610,-478.5 610,-472.5"/>
<polyline fill="none" stroke="black" points="610,-472.5 610,-286.5 "/>
<path fill="none" stroke="black" d="M610,-286.5C610,-280.5 616,-274.5 622,-274.5"/>
<text text-anchor="middle" x="687.5" y="-467.9" font-family="Times Roman,serif" font-size="14.00">UserTypesController</text>
<polyline fill="none" stroke="black" points="610,-458.5 765,-458.5 "/>
<text text-anchor="start" x="618" y="-441.9" font-family="Times Roman,serif" font-size="14.00">create</text>
<text text-anchor="start" x="618" y="-423.9" font-family="Times Roman,serif" font-size="14.00">destroy</text>
<text text-anchor="start" x="618" y="-405.9" font-family="Times Roman,serif" font-size="14.00">edit</text>
<text text-anchor="start" x="618" y="-387.9" font-family="Times Roman,serif" font-size="14.00">index</text>
<text text-anchor="start" x="618" y="-369.9" font-family="Times Roman,serif" font-size="14.00">new</text>
<text text-anchor="start" x="618" y="-351.9" font-family="Times Roman,serif" font-size="14.00">show</text>
<text text-anchor="start" x="618" y="-333.9" font-family="Times Roman,serif" font-size="14.00">update</text>
<polyline fill="none" stroke="black" points="610,-324.5 765,-324.5 "/>
<polyline fill="none" stroke="black" points="610,-300.5 765,-300.5 "/>
<text text-anchor="start" x="618" y="-283.9" font-family="Times Roman,serif" font-size="14.00">_layout</text>
</g>
<!-- StartupsController -->
<g id="node3" class="node"><title>StartupsController</title>
<polyline fill="none" stroke="black" points="139,-442.5 260,-442.5 "/>
<path fill="none" stroke="black" d="M260,-442.5C266,-442.5 272,-448.5 272,-454.5"/>
<polyline fill="none" stroke="black" points="272,-454.5 272,-640.5 "/>
<path fill="none" stroke="black" d="M272,-640.5C272,-646.5 266,-652.5 260,-652.5"/>
<polyline fill="none" stroke="black" points="260,-652.5 139,-652.5 "/>
<path fill="none" stroke="black" d="M139,-652.5C133,-652.5 127,-646.5 127,-640.5"/>
<polyline fill="none" stroke="black" points="127,-640.5 127,-454.5 "/>
<path fill="none" stroke="black" d="M127,-454.5C127,-448.5 133,-442.5 139,-442.5"/>
<text text-anchor="middle" x="199.5" y="-635.9" font-family="Times Roman,serif" font-size="14.00">StartupsController</text>
<polyline fill="none" stroke="black" points="127,-626.5 272,-626.5 "/>
<text text-anchor="start" x="135" y="-609.9" font-family="Times Roman,serif" font-size="14.00">create</text>
<text text-anchor="start" x="135" y="-591.9" font-family="Times Roman,serif" font-size="14.00">destroy</text>
<text text-anchor="start" x="135" y="-573.9" font-family="Times Roman,serif" font-size="14.00">edit</text>
<text text-anchor="start" x="135" y="-555.9" font-family="Times Roman,serif" font-size="14.00">index</text>
<text text-anchor="start" x="135" y="-537.9" font-family="Times Roman,serif" font-size="14.00">new</text>
<text text-anchor="start" x="135" y="-519.9" font-family="Times Roman,serif" font-size="14.00">show</text>
<text text-anchor="start" x="135" y="-501.9" font-family="Times Roman,serif" font-size="14.00">update</text>
<polyline fill="none" stroke="black" points="127,-492.5 272,-492.5 "/>
<polyline fill="none" stroke="black" points="127,-468.5 272,-468.5 "/>
<text text-anchor="start" x="135" y="-451.9" font-family="Times Roman,serif" font-size="14.00">_layout</text>
</g>
<!-- MajorsController -->
<g id="node4" class="node"><title>MajorsController</title>
<polyline fill="none" stroke="black" points="790,-778.5 897,-778.5 "/>
<path fill="none" stroke="black" d="M897,-778.5C903,-778.5 909,-784.5 909,-790.5"/>
<polyline fill="none" stroke="black" points="909,-790.5 909,-976.5 "/>
<path fill="none" stroke="black" d="M909,-976.5C909,-982.5 903,-988.5 897,-988.5"/>
<polyline fill="none" stroke="black" points="897,-988.5 790,-988.5 "/>
<path fill="none" stroke="black" d="M790,-988.5C784,-988.5 778,-982.5 778,-976.5"/>
<polyline fill="none" stroke="black" points="778,-976.5 778,-790.5 "/>
<path fill="none" stroke="black" d="M778,-790.5C778,-784.5 784,-778.5 790,-778.5"/>
<text text-anchor="middle" x="843.5" y="-971.9" font-family="Times Roman,serif" font-size="14.00">MajorsController</text>
<polyline fill="none" stroke="black" points="778,-962.5 909,-962.5 "/>
<text text-anchor="start" x="786" y="-945.9" font-family="Times Roman,serif" font-size="14.00">create</text>
<text text-anchor="start" x="786" y="-927.9" font-family="Times Roman,serif" font-size="14.00">destroy</text>
<text text-anchor="start" x="786" y="-909.9" font-family="Times Roman,serif" font-size="14.00">edit</text>
<text text-anchor="start" x="786" y="-891.9" font-family="Times Roman,serif" font-size="14.00">index</text>
<text text-anchor="start" x="786" y="-873.9" font-family="Times Roman,serif" font-size="14.00">new</text>
<text text-anchor="start" x="786" y="-855.9" font-family="Times Roman,serif" font-size="14.00">show</text>
<text text-anchor="start" x="786" y="-837.9" font-family="Times Roman,serif" font-size="14.00">update</text>
<polyline fill="none" stroke="black" points="778,-828.5 909,-828.5 "/>
<polyline fill="none" stroke="black" points="778,-804.5 909,-804.5 "/>
<text text-anchor="start" x="786" y="-787.9" font-family="Times Roman,serif" font-size="14.00">_layout</text>
</g>
<!-- MinorsController -->
<g id="node5" class="node"><title>MinorsController</title>
<polyline fill="none" stroke="black" points="622,-778.5 729,-778.5 "/>
<path fill="none" stroke="black" d="M729,-778.5C735,-778.5 741,-784.5 741,-790.5"/>
<polyline fill="none" stroke="black" points="741,-790.5 741,-976.5 "/>
<path fill="none" stroke="black" d="M741,-976.5C741,-982.5 735,-988.5 729,-988.5"/>
<polyline fill="none" stroke="black" points="729,-988.5 622,-988.5 "/>
<path fill="none" stroke="black" d="M622,-988.5C616,-988.5 610,-982.5 610,-976.5"/>
<polyline fill="none" stroke="black" points="610,-976.5 610,-790.5 "/>
<path fill="none" stroke="black" d="M610,-790.5C610,-784.5 616,-778.5 622,-778.5"/>
<text text-anchor="middle" x="675.5" y="-971.9" font-family="Times Roman,serif" font-size="14.00">MinorsController</text>
<polyline fill="none" stroke="black" points="610,-962.5 741,-962.5 "/>
<text text-anchor="start" x="618" y="-945.9" font-family="Times Roman,serif" font-size="14.00">create</text>
<text text-anchor="start" x="618" y="-927.9" font-family="Times Roman,serif" font-size="14.00">destroy</text>
<text text-anchor="start" x="618" y="-909.9" font-family="Times Roman,serif" font-size="14.00">edit</text>
<text text-anchor="start" x="618" y="-891.9" font-family="Times Roman,serif" font-size="14.00">index</text>
<text text-anchor="start" x="618" y="-873.9" font-family="Times Roman,serif" font-size="14.00">new</text>
<text text-anchor="start" x="618" y="-855.9" font-family="Times Roman,serif" font-size="14.00">show</text>
<text text-anchor="start" x="618" y="-837.9" font-family="Times Roman,serif" font-size="14.00">update</text>
<polyline fill="none" stroke="black" points="610,-828.5 741,-828.5 "/>
<polyline fill="none" stroke="black" points="610,-804.5 741,-804.5 "/>
<text text-anchor="start" x="618" y="-787.9" font-family="Times Roman,serif" font-size="14.00">_layout</text>
</g>
<!-- TeamsController -->
<g id="node6" class="node"><title>TeamsController</title>
<polyline fill="none" stroke="black" points="811,-337.5 915,-337.5 "/>
<path fill="none" stroke="black" d="M915,-337.5C921,-337.5 927,-343.5 927,-349.5"/>
<polyline fill="none" stroke="black" points="927,-349.5 927,-535.5 "/>
<path fill="none" stroke="black" d="M927,-535.5C927,-541.5 921,-547.5 915,-547.5"/>
<polyline fill="none" stroke="black" points="915,-547.5 811,-547.5 "/>
<path fill="none" stroke="black" d="M811,-547.5C805,-547.5 799,-541.5 799,-535.5"/>
<polyline fill="none" stroke="black" points="799,-535.5 799,-349.5 "/>
<path fill="none" stroke="black" d="M799,-349.5C799,-343.5 805,-337.5 811,-337.5"/>
<text text-anchor="middle" x="863" y="-530.9" font-family="Times Roman,serif" font-size="14.00">TeamsController</text>
<polyline fill="none" stroke="black" points="799,-521.5 927,-521.5 "/>
<text text-anchor="start" x="807" y="-504.9" font-family="Times Roman,serif" font-size="14.00">create</text>
<text text-anchor="start" x="807" y="-486.9" font-family="Times Roman,serif" font-size="14.00">destroy</text>
<text text-anchor="start" x="807" y="-468.9" font-family="Times Roman,serif" font-size="14.00">edit</text>
<text text-anchor="start" x="807" y="-450.9" font-family="Times Roman,serif" font-size="14.00">index</text>
<text text-anchor="start" x="807" y="-432.9" font-family="Times Roman,serif" font-size="14.00">new</text>
<text text-anchor="start" x="807" y="-414.9" font-family="Times Roman,serif" font-size="14.00">show</text>
<text text-anchor="start" x="807" y="-396.9" font-family="Times Roman,serif" font-size="14.00">update</text>
<polyline fill="none" stroke="black" points="799,-387.5 927,-387.5 "/>
<polyline fill="none" stroke="black" points="799,-363.5 927,-363.5 "/>
<text text-anchor="start" x="807" y="-346.9" font-family="Times Roman,serif" font-size="14.00">_layout</text>
</g>
<!-- UsersController -->
<g id="node7" class="node"><title>UsersController</title>
<polyline fill="none" stroke="black" points="454,-841.5 554,-841.5 "/>
<path fill="none" stroke="black" d="M554,-841.5C560,-841.5 566,-847.5 566,-853.5"/>
<polyline fill="none" stroke="black" points="566,-853.5 566,-1039.5 "/>
<path fill="none" stroke="black" d="M566,-1039.5C566,-1045.5 560,-1051.5 554,-1051.5"/>
<polyline fill="none" stroke="black" points="554,-1051.5 454,-1051.5 "/>
<path fill="none" stroke="black" d="M454,-1051.5C448,-1051.5 442,-1045.5 442,-1039.5"/>
<polyline fill="none" stroke="black" points="442,-1039.5 442,-853.5 "/>
<path fill="none" stroke="black" d="M442,-853.5C442,-847.5 448,-841.5 454,-841.5"/>
<text text-anchor="middle" x="504" y="-1034.9" font-family="Times Roman,serif" font-size="14.00">UsersController</text>
<polyline fill="none" stroke="black" points="442,-1025.5 566,-1025.5 "/>
<text text-anchor="start" x="450" y="-1008.9" font-family="Times Roman,serif" font-size="14.00">create</text>
<text text-anchor="start" x="450" y="-990.9" font-family="Times Roman,serif" font-size="14.00">destroy</text>
<text text-anchor="start" x="450" y="-972.9" font-family="Times Roman,serif" font-size="14.00">edit</text>
<text text-anchor="start" x="450" y="-954.9" font-family="Times Roman,serif" font-size="14.00">index</text>
<text text-anchor="start" x="450" y="-936.9" font-family="Times Roman,serif" font-size="14.00">new</text>
<text text-anchor="start" x="450" y="-918.9" font-family="Times Roman,serif" font-size="14.00">show</text>
<text text-anchor="start" x="450" y="-900.9" font-family="Times Roman,serif" font-size="14.00">update</text>
<polyline fill="none" stroke="black" points="442,-891.5 566,-891.5 "/>
<polyline fill="none" stroke="black" points="442,-867.5 566,-867.5 "/>
<text text-anchor="start" x="450" y="-850.9" font-family="Times Roman,serif" font-size="14.00">_layout</text>
</g>
<!-- ApplicationController -->
<g id="node8" class="node"><title>ApplicationController</title>
<polyline fill="none" stroke="black" points="328,-337.5 551,-337.5 "/>
<path fill="none" stroke="black" d="M551,-337.5C557,-337.5 563,-343.5 563,-349.5"/>
<polyline fill="none" stroke="black" points="563,-349.5 563,-535.5 "/>
<path fill="none" stroke="black" d="M563,-535.5C563,-541.5 557,-547.5 551,-547.5"/>
<polyline fill="none" stroke="black" points="551,-547.5 328,-547.5 "/>
<path fill="none" stroke="black" d="M328,-547.5C322,-547.5 316,-541.5 316,-535.5"/>
<polyline fill="none" stroke="black" points="316,-535.5 316,-349.5 "/>
<path fill="none" stroke="black" d="M316,-349.5C316,-343.5 322,-337.5 328,-337.5"/>
<text text-anchor="middle" x="439.5" y="-530.9" font-family="Times Roman,serif" font-size="14.00">ApplicationController</text>
<polyline fill="none" stroke="black" points="316,-521.5 563,-521.5 "/>
<text text-anchor="start" x="324" y="-504.9" font-family="Times Roman,serif" font-size="14.00">_one_time_conditions_valid_106?</text>
<polyline fill="none" stroke="black" points="316,-495.5 563,-495.5 "/>
<polyline fill="none" stroke="black" points="316,-471.5 563,-471.5 "/>
<text text-anchor="start" x="324" y="-454.9" font-family="Times Roman,serif" font-size="14.00">_layout</text>
<text text-anchor="start" x="324" y="-436.9" font-family="Times Roman,serif" font-size="14.00">current_user</text>
<text text-anchor="start" x="324" y="-418.9" font-family="Times Roman,serif" font-size="14.00">current_user_session</text>
<text text-anchor="start" x="324" y="-400.9" font-family="Times Roman,serif" font-size="14.00">redirect_back_or_default</text>
<text text-anchor="start" x="324" y="-382.9" font-family="Times Roman,serif" font-size="14.00">require_no_user</text>
<text text-anchor="start" x="324" y="-364.9" font-family="Times Roman,serif" font-size="14.00">require_user</text>
<text text-anchor="start" x="324" y="-346.9" font-family="Times Roman,serif" font-size="14.00">store_location</text>
</g>
<!-- OrganizationsController -->
<g id="node9" class="node"><title>OrganizationsController</title>
<polyline fill="none" stroke="black" points="370,-589.5 528,-589.5 "/>
<path fill="none" stroke="black" d="M528,-589.5C534,-589.5 540,-595.5 540,-601.5"/>
<polyline fill="none" stroke="black" points="540,-601.5 540,-787.5 "/>
<path fill="none" stroke="black" d="M540,-787.5C540,-793.5 534,-799.5 528,-799.5"/>
<polyline fill="none" stroke="black" points="528,-799.5 370,-799.5 "/>
<path fill="none" stroke="black" d="M370,-799.5C364,-799.5 358,-793.5 358,-787.5"/>
<polyline fill="none" stroke="black" points="358,-787.5 358,-601.5 "/>
<path fill="none" stroke="black" d="M358,-601.5C358,-595.5 364,-589.5 370,-589.5"/>
<text text-anchor="middle" x="449" y="-782.9" font-family="Times Roman,serif" font-size="14.00">OrganizationsController</text>
<polyline fill="none" stroke="black" points="358,-773.5 540,-773.5 "/>
<text text-anchor="start" x="366" y="-756.9" font-family="Times Roman,serif" font-size="14.00">create</text>
<text text-anchor="start" x="366" y="-738.9" font-family="Times Roman,serif" font-size="14.00">destroy</text>
<text text-anchor="start" x="366" y="-720.9" font-family="Times Roman,serif" font-size="14.00">edit</text>
<text text-anchor="start" x="366" y="-702.9" font-family="Times Roman,serif" font-size="14.00">index</text>
<text text-anchor="start" x="366" y="-684.9" font-family="Times Roman,serif" font-size="14.00">new</text>
<text text-anchor="start" x="366" y="-666.9" font-family="Times Roman,serif" font-size="14.00">show</text>
<text text-anchor="start" x="366" y="-648.9" font-family="Times Roman,serif" font-size="14.00">update</text>
<polyline fill="none" stroke="black" points="358,-639.5 540,-639.5 "/>
<polyline fill="none" stroke="black" points="358,-615.5 540,-615.5 "/>
<text text-anchor="start" x="366" y="-598.9" font-family="Times Roman,serif" font-size="14.00">_layout</text>
</g>
<!-- AuthenticationsController -->
<g id="node10" class="node"><title>AuthenticationsController</title>
<polyline fill="none" stroke="black" points="160,-148.5 331,-148.5 "/>
<path fill="none" stroke="black" d="M331,-148.5C337,-148.5 343,-154.5 343,-160.5"/>
<polyline fill="none" stroke="black" points="343,-160.5 343,-292.5 "/>
<path fill="none" stroke="black" d="M343,-292.5C343,-298.5 337,-304.5 331,-304.5"/>
<polyline fill="none" stroke="black" points="331,-304.5 160,-304.5 "/>
<path fill="none" stroke="black" d="M160,-304.5C154,-304.5 148,-298.5 148,-292.5"/>
<polyline fill="none" stroke="black" points="148,-292.5 148,-160.5 "/>
<path fill="none" stroke="black" d="M148,-160.5C148,-154.5 154,-148.5 160,-148.5"/>
<text text-anchor="middle" x="245.5" y="-287.9" font-family="Times Roman,serif" font-size="14.00">AuthenticationsController</text>
<polyline fill="none" stroke="black" points="148,-278.5 343,-278.5 "/>
<text text-anchor="start" x="156" y="-261.9" font-family="Times Roman,serif" font-size="14.00">create</text>
<text text-anchor="start" x="156" y="-243.9" font-family="Times Roman,serif" font-size="14.00">destroy</text>
<text text-anchor="start" x="156" y="-225.9" font-family="Times Roman,serif" font-size="14.00">failure</text>
<text text-anchor="start" x="156" y="-207.9" font-family="Times Roman,serif" font-size="14.00">index</text>
<polyline fill="none" stroke="black" points="148,-198.5 343,-198.5 "/>
<polyline fill="none" stroke="black" points="148,-174.5 343,-174.5 "/>
<text text-anchor="start" x="156" y="-157.9" font-family="Times Roman,serif" font-size="14.00">_layout</text>
</g>
<!-- InterestsController -->
<g id="node11" class="node"><title>InterestsController</title>
<polyline fill="none" stroke="black" points="811,-85.5 934,-85.5 "/>
<path fill="none" stroke="black" d="M934,-85.5C940,-85.5 946,-91.5 946,-97.5"/>
<polyline fill="none" stroke="black" points="946,-97.5 946,-283.5 "/>
<path fill="none" stroke="black" d="M946,-283.5C946,-289.5 940,-295.5 934,-295.5"/>
<polyline fill="none" stroke="black" points="934,-295.5 811,-295.5 "/>
<path fill="none" stroke="black" d="M811,-295.5C805,-295.5 799,-289.5 799,-283.5"/>
<polyline fill="none" stroke="black" points="799,-283.5 799,-97.5 "/>
<path fill="none" stroke="black" d="M799,-97.5C799,-91.5 805,-85.5 811,-85.5"/>
<text text-anchor="middle" x="872.5" y="-278.9" font-family="Times Roman,serif" font-size="14.00">InterestsController</text>
<polyline fill="none" stroke="black" points="799,-269.5 946,-269.5 "/>
<text text-anchor="start" x="807" y="-252.9" font-family="Times Roman,serif" font-size="14.00">create</text>
<text text-anchor="start" x="807" y="-234.9" font-family="Times Roman,serif" font-size="14.00">destroy</text>
<text text-anchor="start" x="807" y="-216.9" font-family="Times Roman,serif" font-size="14.00">edit</text>
<text text-anchor="start" x="807" y="-198.9" font-family="Times Roman,serif" font-size="14.00">index</text>
<text text-anchor="start" x="807" y="-180.9" font-family="Times Roman,serif" font-size="14.00">new</text>
<text text-anchor="start" x="807" y="-162.9" font-family="Times Roman,serif" font-size="14.00">show</text>
<text text-anchor="start" x="807" y="-144.9" font-family="Times Roman,serif" font-size="14.00">update</text>
<polyline fill="none" stroke="black" points="799,-135.5 946,-135.5 "/>
<polyline fill="none" stroke="black" points="799,-111.5 946,-111.5 "/>
<text text-anchor="start" x="807" y="-94.9" font-family="Times Roman,serif" font-size="14.00">_layout</text>
</g>
<!-- PagesController -->
<g id="node12" class="node"><title>PagesController</title>
<polyline fill="none" stroke="black" points="454,-1.5 555,-1.5 "/>
<path fill="none" stroke="black" d="M555,-1.5C561,-1.5 567,-7.5 567,-13.5"/>
<polyline fill="none" stroke="black" points="567,-13.5 567,-91.5 "/>
<path fill="none" stroke="black" d="M567,-91.5C567,-97.5 561,-103.5 555,-103.5"/>
<polyline fill="none" stroke="black" points="555,-103.5 454,-103.5 "/>
<path fill="none" stroke="black" d="M454,-103.5C448,-103.5 442,-97.5 442,-91.5"/>
<polyline fill="none" stroke="black" points="442,-91.5 442,-13.5 "/>
<path fill="none" stroke="black" d="M442,-13.5C442,-7.5 448,-1.5 454,-1.5"/>
<text text-anchor="middle" x="504.5" y="-86.9" font-family="Times Roman,serif" font-size="14.00">PagesController</text>
<polyline fill="none" stroke="black" points="442,-77.5 567,-77.5 "/>
<text text-anchor="start" x="450" y="-60.9" font-family="Times Roman,serif" font-size="14.00">home</text>
<polyline fill="none" stroke="black" points="442,-51.5 567,-51.5 "/>
<polyline fill="none" stroke="black" points="442,-27.5 567,-27.5 "/>
<text text-anchor="start" x="450" y="-10.9" font-family="Times Roman,serif" font-size="14.00">_layout</text>
</g>
<!-- SkillsController -->
<g id="node13" class="node"><title>SkillsController</title>
<polyline fill="none" stroke="black" points="13,-883.5 110,-883.5 "/>
<path fill="none" stroke="black" d="M110,-883.5C116,-883.5 122,-889.5 122,-895.5"/>
<polyline fill="none" stroke="black" points="122,-895.5 122,-1081.5 "/>
<path fill="none" stroke="black" d="M122,-1081.5C122,-1087.5 116,-1093.5 110,-1093.5"/>
<polyline fill="none" stroke="black" points="110,-1093.5 13,-1093.5 "/>
<path fill="none" stroke="black" d="M13,-1093.5C7,-1093.5 1,-1087.5 1,-1081.5"/>
<polyline fill="none" stroke="black" points="1,-1081.5 1,-895.5 "/>
<path fill="none" stroke="black" d="M1,-895.5C1,-889.5 7,-883.5 13,-883.5"/>
<text text-anchor="middle" x="61.5" y="-1076.9" font-family="Times Roman,serif" font-size="14.00">SkillsController</text>
<polyline fill="none" stroke="black" points="1,-1067.5 122,-1067.5 "/>
<text text-anchor="start" x="9" y="-1050.9" font-family="Times Roman,serif" font-size="14.00">create</text>
<text text-anchor="start" x="9" y="-1032.9" font-family="Times Roman,serif" font-size="14.00">destroy</text>
<text text-anchor="start" x="9" y="-1014.9" font-family="Times Roman,serif" font-size="14.00">edit</text>
<text text-anchor="start" x="9" y="-996.9" font-family="Times Roman,serif" font-size="14.00">index</text>
<text text-anchor="start" x="9" y="-978.9" font-family="Times Roman,serif" font-size="14.00">new</text>
<text text-anchor="start" x="9" y="-960.9" font-family="Times Roman,serif" font-size="14.00">show</text>
<text text-anchor="start" x="9" y="-942.9" font-family="Times Roman,serif" font-size="14.00">update</text>
<polyline fill="none" stroke="black" points="1,-933.5 122,-933.5 "/>
<polyline fill="none" stroke="black" points="1,-909.5 122,-909.5 "/>
<text text-anchor="start" x="9" y="-892.9" font-family="Times Roman,serif" font-size="14.00">_layout</text>
</g>
<!-- UserSessionsController -->
<g id="node14" class="node"><title>UserSessionsController</title>
<polyline fill="none" stroke="black" points="601,-589.5 824,-589.5 "/>
<path fill="none" stroke="black" d="M824,-589.5C830,-589.5 836,-595.5 836,-601.5"/>
<polyline fill="none" stroke="black" points="836,-601.5 836,-733.5 "/>
<path fill="none" stroke="black" d="M836,-733.5C836,-739.5 830,-745.5 824,-745.5"/>
<polyline fill="none" stroke="black" points="824,-745.5 601,-745.5 "/>
<path fill="none" stroke="black" d="M601,-745.5C595,-745.5 589,-739.5 589,-733.5"/>
<polyline fill="none" stroke="black" points="589,-733.5 589,-601.5 "/>
<path fill="none" stroke="black" d="M589,-601.5C589,-595.5 595,-589.5 601,-589.5"/>
<text text-anchor="middle" x="712.5" y="-728.9" font-family="Times Roman,serif" font-size="14.00">UserSessionsController</text>
<polyline fill="none" stroke="black" points="589,-719.5 836,-719.5 "/>
<text text-anchor="start" x="597" y="-702.9" font-family="Times Roman,serif" font-size="14.00">_one_time_conditions_valid_546?</text>
<text text-anchor="start" x="597" y="-684.9" font-family="Times Roman,serif" font-size="14.00">create</text>
<text text-anchor="start" x="597" y="-666.9" font-family="Times Roman,serif" font-size="14.00">destroy</text>
<text text-anchor="start" x="597" y="-648.9" font-family="Times Roman,serif" font-size="14.00">new</text>
<polyline fill="none" stroke="black" points="589,-639.5 836,-639.5 "/>
<polyline fill="none" stroke="black" points="589,-615.5 836,-615.5 "/>
<text text-anchor="start" x="597" y="-598.9" font-family="Times Roman,serif" font-size="14.00">_layout</text>
</g>
<!-- ProgramsController -->
<g id="node15" class="node"><title>ProgramsController</title>
<polyline fill="none" stroke="black" points="181,-715.5 308,-715.5 "/>
<path fill="none" stroke="black" d="M308,-715.5C314,-715.5 320,-721.5 320,-727.5"/>
<polyline fill="none" stroke="black" points="320,-727.5 320,-913.5 "/>
<path fill="none" stroke="black" d="M320,-913.5C320,-919.5 314,-925.5 308,-925.5"/>
<polyline fill="none" stroke="black" points="308,-925.5 181,-925.5 "/>
<path fill="none" stroke="black" d="M181,-925.5C175,-925.5 169,-919.5 169,-913.5"/>
<polyline fill="none" stroke="black" points="169,-913.5 169,-727.5 "/>
<path fill="none" stroke="black" d="M169,-727.5C169,-721.5 175,-715.5 181,-715.5"/>
<text text-anchor="middle" x="244.5" y="-908.9" font-family="Times Roman,serif" font-size="14.00">ProgramsController</text>
<polyline fill="none" stroke="black" points="169,-899.5 320,-899.5 "/>
<text text-anchor="start" x="177" y="-882.9" font-family="Times Roman,serif" font-size="14.00">create</text>
<text text-anchor="start" x="177" y="-864.9" font-family="Times Roman,serif" font-size="14.00">destroy</text>
<text text-anchor="start" x="177" y="-846.9" font-family="Times Roman,serif" font-size="14.00">edit</text>
<text text-anchor="start" x="177" y="-828.9" font-family="Times Roman,serif" font-size="14.00">index</text>
<text text-anchor="start" x="177" y="-810.9" font-family="Times Roman,serif" font-size="14.00">new</text>
<text text-anchor="start" x="177" y="-792.9" font-family="Times Roman,serif" font-size="14.00">show</text>
<text text-anchor="start" x="177" y="-774.9" font-family="Times Roman,serif" font-size="14.00">update</text>
<polyline fill="none" stroke="black" points="169,-765.5 320,-765.5 "/>
<polyline fill="none" stroke="black" points="169,-741.5 320,-741.5 "/>
<text text-anchor="start" x="177" y="-724.9" font-family="Times Roman,serif" font-size="14.00">_layout</text>
</g>
</g>
</svg>
