<?xml version="1.0" encoding="UTF-8" standalone="no"?>
<!DOCTYPE svg PUBLIC "-//W3C//DTD SVG 1.1//EN"
 "http://www.w3.org/Graphics/SVG/1.1/DTD/svg11.dtd">
<!-- Generated by graphviz version 2.26.3 (20100126.1600)
 -->
<!-- Title: models_diagram Pages: 1 -->
<svg width="1443pt" height="422pt"
 viewBox="0.00 0.00 1442.60 422.00" xmlns="http://www.w3.org/2000/svg" xmlns:xlink="http://www.w3.org/1999/xlink">
<g id="graph1" class="graph" transform="scale(1 1) rotate(0) translate(4 418)">
<title>models_diagram</title>
<polygon fill="white" stroke="white" points="-4,5 -4,-418 1439.6,-418 1439.6,5 -4,5"/>
<!-- _diagram_info -->
<g id="node1" class="node"><title>_diagram_info</title>
<text text-anchor="start" x="280.596" y="-397.8" font-family="Times Roman,serif" font-size="13.00">Models diagram</text>
<text text-anchor="start" x="280.596" y="-380.8" font-family="Times Roman,serif" font-size="13.00">Date: May 31 2012 &#45; 16:34</text>
<text text-anchor="start" x="280.596" y="-363.8" font-family="Times Roman,serif" font-size="13.00">Migration version: 20120528205434</text>
<text text-anchor="start" x="280.596" y="-346.8" font-family="Times Roman,serif" font-size="13.00">Generated by RailRoady 1.0.7</text>
<text text-anchor="start" x="280.596" y="-329.8" font-family="Times Roman,serif" font-size="13.00">http://railroady.prestonlee.com</text>
</g>
<!-- ProgramAffiliation -->
<g id="node2" class="node"><title>ProgramAffiliation</title>
<ellipse fill="none" stroke="black" cx="210.596" cy="-95" rx="99.201" ry="18.3848"/>
<text text-anchor="middle" x="210.596" y="-91.4" font-family="Times Roman,serif" font-size="14.00">ProgramAffiliation</text>
</g>
<!-- User -->
<g id="node3" class="node"><title>User</title>
<ellipse fill="none" stroke="black" cx="672.596" cy="-263" rx="33.9411" ry="18.3848"/>
<text text-anchor="middle" x="672.596" y="-259.4" font-family="Times Roman,serif" font-size="14.00">User</text>
</g>
<!-- User&#45;&gt;ProgramAffiliation -->
<g id="edge24" class="edge"><title>User&#45;&gt;ProgramAffiliation</title>
<path fill="none" stroke="#92bcf2" d="M630.461,-259.957C539.223,-252.65 326.975,-231.557 269.596,-190 246.552,-173.31 230.556,-144.595 221.091,-123.092"/>
<ellipse fill="none" stroke="#92bcf2" cx="634.656" cy="-260.288" rx="4" ry="4"/>
<polygon fill="#92bcf2" stroke="#92bcf2" points="221.058,-123.015 221.351,-112.053 219.129,-118.403 217.2,-113.79 217.2,-113.79 217.2,-113.79 219.129,-118.403 213.048,-115.526 221.058,-123.015 221.058,-123.015"/>
</g>
<!-- Major -->
<g id="node4" class="node"><title>Major</title>
<ellipse fill="none" stroke="black" cx="59.5959" cy="-171" rx="38.8909" ry="18.3848"/>
<text text-anchor="middle" x="59.5959" y="-167.4" font-family="Times Roman,serif" font-size="14.00">Major</text>
</g>
<!-- User&#45;&gt;Major -->
<g id="edge18" class="edge"><title>User&#45;&gt;Major</title>
<path fill="none" stroke="#685808" d="M628.347,-261.063C527.793,-256.409 284.636,-243.658 204.596,-226 166.566,-217.61 125.219,-201.142 96.4454,-188.403"/>
<polygon fill="#685808" stroke="#685808" points="628.484,-261.069 638.267,-266.022 633.478,-261.298 638.473,-261.527 638.473,-261.527 638.473,-261.527 633.478,-261.298 638.679,-257.031 628.484,-261.069 628.484,-261.069"/>
<polygon fill="#685808" stroke="#685808" points="96.313,-188.343 89.0377,-180.139 91.7527,-186.293 87.1924,-184.243 87.1924,-184.243 87.1924,-184.243 91.7527,-186.293 85.3471,-188.347 96.313,-188.343 96.313,-188.343"/>
</g>
<!-- TeamMembership -->
<g id="node6" class="node"><title>TeamMembership</title>
<ellipse fill="none" stroke="black" cx="118.596" cy="-19" rx="96.1665" ry="18.3848"/>
<text text-anchor="middle" x="118.596" y="-15.4" font-family="Times Roman,serif" font-size="14.00">TeamMembership</text>
</g>
<!-- User&#45;&gt;TeamMembership -->
<g id="edge28" class="edge"><title>User&#45;&gt;TeamMembership</title>
<path fill="none" stroke="#640857" d="M630.058,-261.777C489.884,-257.286 49.2638,-239.317 11.5959,-190 -26.2475,-140.454 40.2884,-77.1218 84.3308,-43.1385"/>
<ellipse fill="none" stroke="#640857" cx="634.463" cy="-261.916" rx="4" ry="4"/>
<polygon fill="#640857" stroke="#640857" points="84.5518,-42.9716 95.2438,-40.5363 88.5419,-39.9584 92.532,-36.9452 92.532,-36.9452 92.532,-36.9452 88.5419,-39.9584 89.8201,-33.3541 84.5518,-42.9716 84.5518,-42.9716"/>
</g>
<!-- Program -->
<g id="node7" class="node"><title>Program</title>
<ellipse fill="none" stroke="black" cx="169.596" cy="-171" rx="53.033" ry="18.3848"/>
<text text-anchor="middle" x="169.596" y="-167.4" font-family="Times Roman,serif" font-size="14.00">Program</text>
</g>
<!-- User&#45;&gt;Program -->
<g id="edge26" class="edge"><title>User&#45;&gt;Program</title>
<path fill="none" stroke="#27c2a0" d="M628.197,-262.553C531.869,-261.049 306.719,-254.498 236.596,-226 220.127,-219.307 204.591,-207.081 192.634,-195.852"/>
<polygon fill="#27c2a0" stroke="#27c2a0" points="628.473,-262.557 638.407,-267.201 633.473,-262.629 638.472,-262.701 638.472,-262.701 638.472,-262.701 633.473,-262.629 638.537,-258.202 628.473,-262.557 628.473,-262.557"/>
<polygon fill="#27c2a0" stroke="#27c2a0" points="192.462,-195.684 188.468,-185.471 188.891,-192.185 185.319,-188.686 185.319,-188.686 185.319,-188.686 188.891,-192.185 182.17,-191.9 192.462,-195.684 192.462,-195.684"/>
</g>
<!-- Authentication -->
<g id="node8" class="node"><title>Authentication</title>
<ellipse fill="none" stroke="black" cx="362.596" cy="-171" rx="84.1457" ry="18.3848"/>
<text text-anchor="middle" x="362.596" y="-167.4" font-family="Times Roman,serif" font-size="14.00">Authentication</text>
</g>
<!-- User&#45;&gt;Authentication -->
<g id="edge32" class="edge"><title>User&#45;&gt;Authentication</title>
<path fill="none" stroke="#33e7f0" d="M630.566,-259.878C587.008,-255.68 517.469,-246.253 460.596,-226 438.325,-218.069 415.181,-205.324 396.98,-194.099"/>
<ellipse fill="none" stroke="#33e7f0" cx="634.67" cy="-260.258" rx="4" ry="4"/>
<polygon fill="#33e7f0" stroke="#33e7f0" points="396.93,-194.067 390.866,-184.93 392.699,-191.403 388.468,-188.738 388.468,-188.738 388.468,-188.738 392.699,-191.403 386.07,-192.546 396.93,-194.067 396.93,-194.067"/>
</g>
<!-- Startup -->
<g id="node9" class="node"><title>Startup</title>
<ellipse fill="none" stroke="black" cx="719.596" cy="-171" rx="48.7904" ry="18.3848"/>
<text text-anchor="middle" x="719.596" y="-167.4" font-family="Times Roman,serif" font-size="14.00">Startup</text>
</g>
<!-- User&#45;&gt;Startup -->
<g id="edge34" class="edge"><title>User&#45;&gt;Startup</title>
<path fill="none" stroke="#fcd1f0" d="M660.411,-237.222C657.629,-227.603 656.732,-216.872 661.596,-208 665.431,-201.004 671.214,-195.14 677.666,-190.293"/>
<ellipse fill="none" stroke="#fcd1f0" cx="661.793" cy="-241.197" rx="4.00001" ry="4.00001"/>
<polygon fill="#fcd1f0" stroke="#fcd1f0" points="677.772,-190.223 688.592,-188.438 681.937,-187.457 686.102,-184.69 686.102,-184.69 686.102,-184.69 681.937,-187.457 683.612,-180.942 677.772,-190.223 677.772,-190.223"/>
</g>
<!-- Organization -->
<g id="node10" class="node"><title>Organization</title>
<ellipse fill="none" stroke="black" cx="577.596" cy="-171" rx="75.1594" ry="18.3848"/>
<text text-anchor="middle" x="577.596" y="-167.4" font-family="Times Roman,serif" font-size="14.00">Organization</text>
</g>
<!-- User&#45;&gt;Organization -->
<g id="edge22" class="edge"><title>User&#45;&gt;Organization</title>
<path fill="none" stroke="#3ab894" d="M648.119,-239.296C634.516,-226.122 617.59,-209.731 603.73,-196.309"/>
<polygon fill="#3ab894" stroke="#3ab894" points="648.428,-239.595 652.481,-249.785 652.02,-243.074 655.612,-246.552 655.612,-246.552 655.612,-246.552 652.02,-243.074 658.742,-243.32 648.428,-239.595 648.428,-239.595"/>
<polygon fill="#3ab894" stroke="#3ab894" points="603.57,-196.154 599.517,-185.964 599.978,-192.675 596.386,-189.197 596.386,-189.197 596.386,-189.197 599.978,-192.675 593.256,-192.429 603.57,-196.154 603.57,-196.154"/>
</g>
<!-- Team -->
<g id="node13" class="node"><title>Team</title>
<ellipse fill="none" stroke="black" cx="474.596" cy="-95" rx="36.977" ry="18.3848"/>
<text text-anchor="middle" x="474.596" y="-91.4" font-family="Times Roman,serif" font-size="14.00">Team</text>
</g>
<!-- User&#45;&gt;Team -->
<g id="edge30" class="edge"><title>User&#45;&gt;Team</title>
<path fill="none" stroke="#b144b2" d="M629.272,-257.154C588.068,-249.236 527.489,-231.026 493.596,-190 478.361,-171.56 474.19,-144.291 473.491,-123.692"/>
<polygon fill="#b144b2" stroke="#b144b2" points="629.459,-257.188 638.507,-263.383 634.38,-258.071 639.302,-258.953 639.302,-258.953 639.302,-258.953 634.38,-258.071 640.096,-254.524 629.459,-257.188 629.459,-257.188"/>
<polygon fill="#b144b2" stroke="#b144b2" points="473.49,-123.61 477.901,-113.571 473.446,-118.611 473.402,-113.611 473.402,-113.611 473.402,-113.611 473.446,-118.611 468.902,-113.651 473.49,-123.61 473.49,-123.61"/>
</g>
<!-- Minor -->
<g id="node14" class="node"><title>Minor</title>
<ellipse fill="none" stroke="black" cx="825.596" cy="-171" rx="39.0967" ry="18.3848"/>
<text text-anchor="middle" x="825.596" y="-167.4" font-family="Times Roman,serif" font-size="14.00">Minor</text>
</g>
<!-- User&#45;&gt;Minor -->
<g id="edge20" class="edge"><title>User&#45;&gt;Minor</title>
<path fill="none" stroke="#fd9afb" d="M673.854,-234.344C675.697,-224.772 679.4,-214.818 686.596,-208 716.525,-179.645 738.044,-201.635 777.596,-190 780.691,-189.089 783.865,-188.059 787.035,-186.961"/>
<polygon fill="#fd9afb" stroke="#fd9afb" points="673.833,-234.502 668.046,-243.817 673.17,-239.458 672.507,-244.414 672.507,-244.414 672.507,-244.414 673.17,-239.458 676.967,-245.011 673.833,-234.502 673.833,-234.502"/>
<polygon fill="#fd9afb" stroke="#fd9afb" points="787.055,-186.954 797.993,-187.74 791.75,-185.234 796.445,-183.514 796.445,-183.514 796.445,-183.514 791.75,-185.234 794.897,-179.289 787.055,-186.954 787.055,-186.954"/>
</g>
<!-- ActsAsTaggableOn::Tagging -->
<g id="node17" class="node"><title>ActsAsTaggableOn::Tagging</title>
<ellipse fill="none" stroke="black" cx="1026.6" cy="-171" rx="144.25" ry="18.3848"/>
<text text-anchor="middle" x="1026.6" y="-167.4" font-family="Times Roman,serif" font-size="14.00">ActsAsTaggableOn::Tagging</text>
</g>
<!-- User&#45;&gt;ActsAsTaggableOn::Tagging -->
<g id="edge2" class="edge"><title>User&#45;&gt;ActsAsTaggableOn::Tagging</title>
<path fill="none" stroke="#128fe2" d="M714.859,-260.432C812.098,-254.322 1044.25,-238.494 1055.6,-226 1063.14,-217.696 1059.78,-207.072 1053.13,-197.38"/>
<ellipse fill="none" stroke="#128fe2" cx="710.702" cy="-260.692" rx="4" ry="4"/>
<polygon fill="#128fe2" stroke="#128fe2" points="1053.13,-197.379 1050.46,-186.741 1050.03,-193.454 1046.93,-189.529 1046.93,-189.529 1046.93,-189.529 1050.03,-193.454 1043.4,-192.316 1053.13,-197.379 1053.13,-197.379"/>
<text text-anchor="middle" x="1089.1" y="-213.4" font-family="Times Roman,serif" font-size="14.00">taggings</text>
</g>
<!-- User&#45;&gt;ActsAsTaggableOn::Tagging -->
<g id="edge6" class="edge"><title>User&#45;&gt;ActsAsTaggableOn::Tagging</title>
<path fill="none" stroke="#af84d4" d="M682.299,-237.464C687.764,-226.59 695.715,-214.856 706.596,-208 738.176,-188.102 836.518,-194.3 873.596,-190 886.52,-188.501 900.053,-186.886 913.497,-185.254"/>
<ellipse fill="none" stroke="#af84d4" cx="680.589" cy="-241.154" rx="4.00002" ry="4.00002"/>
<polygon fill="#af84d4" stroke="#af84d4" points="913.822,-185.214 924.293,-188.471 918.785,-184.609 923.748,-184.004 923.748,-184.004 923.748,-184.004 918.785,-184.609 923.204,-179.537 913.822,-185.214 913.822,-185.214"/>
<text text-anchor="middle" x="751.096" y="-213.4" font-family="Times Roman,serif" font-size="14.00">tag_taggings</text>
</g>
<!-- User&#45;&gt;ActsAsTaggableOn::Tagging -->
<g id="edge10" class="edge"><title>User&#45;&gt;ActsAsTaggableOn::Tagging</title>
<path fill="none" stroke="#48554a" d="M712.78,-254.909C737.542,-248.968 769.448,-239.551 795.596,-226 807.121,-220.027 806.744,-213.293 818.596,-208 836.541,-199.985 875.913,-192.197 915.627,-185.85"/>
<ellipse fill="none" stroke="#48554a" cx="708.571" cy="-255.887" rx="4.00001" ry="4.00001"/>
<polygon fill="#48554a" stroke="#48554a" points="915.839,-185.816 926.415,-188.713 920.779,-185.042 925.719,-184.268 925.719,-184.268 925.719,-184.268 920.779,-185.042 925.022,-179.822 915.839,-185.816 915.839,-185.816"/>
<text text-anchor="middle" x="865.096" y="-213.4" font-family="Times Roman,serif" font-size="14.00">skill_taggings</text>
</g>
<!-- User&#45;&gt;ActsAsTaggableOn::Tagging -->
<g id="edge14" class="edge"><title>User&#45;&gt;ActsAsTaggableOn::Tagging</title>
<path fill="none" stroke="#701726" d="M714.279,-259.556C773.256,-254.176 877.662,-242.643 911.596,-226 922.04,-220.878 920.76,-214.21 930.596,-208 940.233,-201.916 951.031,-196.566 961.811,-191.962"/>
<ellipse fill="none" stroke="#701726" cx="710.255" cy="-259.917" rx="4" ry="4"/>
<polygon fill="#701726" stroke="#701726" points="961.992,-191.888 972.951,-192.275 966.621,-189.999 971.25,-188.109 971.25,-188.109 971.25,-188.109 966.621,-189.999 969.55,-183.943 961.992,-191.888 961.992,-191.888"/>
<text text-anchor="middle" x="991.096" y="-213.4" font-family="Times Roman,serif" font-size="14.00">interest_taggings</text>
</g>
<!-- ActsAsTaggableOn::Tag -->
<g id="node19" class="node"><title>ActsAsTaggableOn::Tag</title>
<ellipse fill="none" stroke="black" cx="1311.6" cy="-171" rx="123.243" ry="18.3848"/>
<text text-anchor="middle" x="1311.6" y="-167.4" font-family="Times Roman,serif" font-size="14.00">ActsAsTaggableOn::Tag</text>
</g>
<!-- User&#45;&gt;ActsAsTaggableOn::Tag -->
<g id="edge4" class="edge"><title>User&#45;&gt;ActsAsTaggableOn::Tag</title>
<path fill="none" stroke="#bf0dee" d="M716.666,-259.556C769.929,-255.47 862.287,-248.63 941.596,-244 963.249,-242.736 1316.62,-241.687 1331.6,-226 1338.85,-218.405 1336.98,-207.977 1332.18,-198.242"/>
<polygon fill="#bf0dee" stroke="#bf0dee" points="716.521,-259.567 706.205,-255.848 711.535,-259.951 706.55,-260.335 706.55,-260.335 706.55,-260.335 711.535,-259.951 706.896,-264.822 716.521,-259.567 716.521,-259.567"/>
<polygon fill="#bf0dee" stroke="#bf0dee" points="1332.18,-198.229 1331.01,-187.325 1329.65,-193.913 1327.13,-189.598 1327.13,-189.598 1327.13,-189.598 1329.65,-193.913 1323.24,-191.87 1332.18,-198.229 1332.18,-198.229"/>
<text text-anchor="middle" x="1370.1" y="-213.4" font-family="Times Roman,serif" font-size="14.00">base_tags</text>
</g>
<!-- User&#45;&gt;ActsAsTaggableOn::Tag -->
<g id="edge8" class="edge"><title>User&#45;&gt;ActsAsTaggableOn::Tag</title>
<path fill="none" stroke="#67a70c" d="M716.536,-259.815C825.944,-251.828 1103.18,-231.21 1122.6,-226 1140.64,-221.156 1142.99,-214.256 1160.6,-208 1182.2,-200.326 1206.09,-193.672 1228.37,-188.205"/>
<polygon fill="#67a70c" stroke="#67a70c" points="716.46,-259.821 706.159,-256.06 711.473,-260.184 706.487,-260.548 706.487,-260.548 706.487,-260.548 711.473,-260.184 706.814,-265.036 716.46,-259.821 716.46,-259.821"/>
<polygon fill="#67a70c" stroke="#67a70c" points="1228.42,-188.193 1239.19,-190.232 1233.28,-187.025 1238.14,-185.857 1238.14,-185.857 1238.14,-185.857 1233.28,-187.025 1237.09,-181.481 1228.42,-188.193 1228.42,-188.193"/>
<text text-anchor="middle" x="1175.6" y="-213.4" font-family="Times Roman,serif" font-size="14.00">tags</text>
</g>
<!-- User&#45;&gt;ActsAsTaggableOn::Tag -->
<g id="edge12" class="edge"><title>User&#45;&gt;ActsAsTaggableOn::Tag</title>
<path fill="none" stroke="#95e57e" d="M716.459,-259.909C841.221,-251.111 1189.21,-226.532 1190.6,-226 1202.71,-221.334 1202.28,-214.365 1213.6,-208 1224.6,-201.807 1236.85,-196.252 1248.85,-191.444"/>
<polygon fill="#95e57e" stroke="#95e57e" points="716.455,-259.909 706.163,-256.124 711.467,-260.261 706.479,-260.612 706.479,-260.612 706.479,-260.612 711.467,-260.261 706.796,-265.101 716.455,-259.909 716.455,-259.909"/>
<polygon fill="#95e57e" stroke="#95e57e" points="1249.07,-191.359 1260.02,-191.947 1253.73,-189.555 1258.39,-187.75 1258.39,-187.75 1258.39,-187.75 1253.73,-189.555 1256.77,-183.553 1249.07,-191.359 1249.07,-191.359"/>
<text text-anchor="middle" x="1230.6" y="-213.4" font-family="Times Roman,serif" font-size="14.00">skills</text>
</g>
<!-- User&#45;&gt;ActsAsTaggableOn::Tag -->
<g id="edge16" class="edge"><title>User&#45;&gt;ActsAsTaggableOn::Tag</title>
<path fill="none" stroke="#8bc4fa" d="M716.676,-259.727C769.95,-255.808 862.318,-249.131 941.596,-244 1009.57,-239.6 1185.09,-253.063 1247.6,-226 1258.27,-221.379 1257.88,-215.699 1266.6,-208 1271.06,-204.055 1275.86,-199.965 1280.6,-196.006"/>
<polygon fill="#8bc4fa" stroke="#8bc4fa" points="716.531,-259.737 706.228,-255.985 711.545,-260.105 706.559,-260.473 706.559,-260.473 706.559,-260.473 711.545,-260.105 706.889,-264.96 716.531,-259.737 716.531,-259.737"/>
<polygon fill="#8bc4fa" stroke="#8bc4fa" points="1280.74,-195.891 1291.31,-192.984 1284.59,-192.704 1288.44,-189.517 1288.44,-189.517 1288.44,-189.517 1284.59,-192.704 1285.57,-186.049 1280.74,-195.891 1280.74,-195.891"/>
<text text-anchor="middle" x="1297.1" y="-213.4" font-family="Times Roman,serif" font-size="14.00">interests</text>
</g>
<!-- Skill -->
<g id="node5" class="node"><title>Skill</title>
<ellipse fill="none" stroke="black" cx="572.596" cy="-367" rx="31.8198" ry="18.3848"/>
<text text-anchor="middle" x="572.596" y="-363.4" font-family="Times Roman,serif" font-size="14.00">Skill</text>
</g>
<!-- Skill&#45;&gt;User -->
<g id="edge36" class="edge"><title>Skill&#45;&gt;User</title>
<path fill="none" stroke="#476327" d="M593.264,-342.511C599.655,-335.157 606.803,-327.147 613.596,-320 624.492,-308.536 637.036,-296.292 647.749,-286.103"/>
<polygon fill="#476327" stroke="#476327" points="593.202,-342.582 583.268,-347.226 589.941,-346.372 586.679,-350.161 586.679,-350.161 586.679,-350.161 589.941,-346.372 590.089,-353.097 593.202,-342.582 593.202,-342.582"/>
<polygon fill="#476327" stroke="#476327" points="647.907,-285.953 658.266,-282.357 651.542,-282.52 655.176,-279.086 655.176,-279.086 655.176,-279.086 651.542,-282.52 652.086,-275.815 647.907,-285.953 647.907,-285.953"/>
</g>
<!-- Program&#45;&gt;ProgramAffiliation -->
<g id="edge38" class="edge"><title>Program&#45;&gt;ProgramAffiliation</title>
<path fill="none" stroke="#05ee40" d="M183.459,-145.303C187.416,-137.968 191.743,-129.947 195.756,-122.508"/>
<ellipse fill="none" stroke="#05ee40" cx="181.42" cy="-149.082" rx="4.00002" ry="4.00002"/>
<polygon fill="#05ee40" stroke="#05ee40" points="195.872,-122.292 204.581,-115.628 198.246,-117.892 200.62,-113.491 200.62,-113.491 200.62,-113.491 198.246,-117.892 196.66,-111.355 195.872,-122.292 195.872,-122.292"/>
</g>
<!-- Startup&#45;&gt;Team -->
<g id="edge40" class="edge"><title>Startup&#45;&gt;Team</title>
<path fill="none" stroke="#6f5ae1" d="M674.623,-156.166C670.225,-154.746 665.827,-153.338 661.596,-152 610.84,-135.953 552.084,-118.173 514.183,-106.807"/>
<ellipse fill="none" stroke="#6f5ae1" cx="678.699" cy="-157.488" rx="4.00001" ry="4.00001"/>
<ellipse fill="#6f5ae1" stroke="#6f5ae1" cx="510.254" cy="-105.63" rx="4.00001" ry="4.00001"/>
</g>
<!-- UserSession -->
<g id="node11" class="node"><title>UserSession</title>
<polygon fill="none" stroke="black" points="1050.6,-281 950.596,-281 950.596,-245 1050.6,-245 1050.6,-281"/>
<text text-anchor="middle" x="1000.6" y="-259.4" font-family="Times Roman,serif" font-size="14.00">UserSession</text>
</g>
<!-- Interest -->
<g id="node12" class="node"><title>Interest</title>
<ellipse fill="none" stroke="black" cx="672.596" cy="-367" rx="50.2046" ry="18.3848"/>
<text text-anchor="middle" x="672.596" y="-363.4" font-family="Times Roman,serif" font-size="14.00">Interest</text>
</g>
<!-- Interest&#45;&gt;User -->
<g id="edge44" class="edge"><title>Interest&#45;&gt;User</title>
<path fill="none" stroke="#755352" d="M672.596,-338.166C672.596,-323.816 672.596,-306.508 672.596,-292.119"/>
<polygon fill="#755352" stroke="#755352" points="672.596,-338.407 668.096,-348.407 672.596,-343.407 672.596,-348.407 672.596,-348.407 672.596,-348.407 672.596,-343.407 677.096,-348.407 672.596,-338.407 672.596,-338.407"/>
<polygon fill="#755352" stroke="#755352" points="672.596,-291.783 677.096,-281.783 672.596,-286.783 672.596,-281.783 672.596,-281.783 672.596,-281.783 672.596,-286.783 668.096,-281.783 672.596,-291.783 672.596,-291.783"/>
</g>
<!-- Team&#45;&gt;TeamMembership -->
<g id="edge46" class="edge"><title>Team&#45;&gt;TeamMembership</title>
<path fill="none" stroke="#4ae501" d="M432.492,-86.0114C373.617,-73.4427 265.773,-50.4198 193.136,-34.9131"/>
<ellipse fill="none" stroke="#4ae501" cx="436.549" cy="-86.8776" rx="4.00001" ry="4.00001"/>
<polygon fill="#4ae501" stroke="#4ae501" points="192.909,-34.8647 184.069,-28.376 188.019,-33.8207 183.129,-32.7768 183.129,-32.7768 183.129,-32.7768 188.019,-33.8207 182.19,-37.1776 192.909,-34.8647 192.909,-34.8647"/>
</g>
<!-- UserType -->
<g id="node15" class="node"><title>UserType</title>
<ellipse fill="none" stroke="black" cx="796.596" cy="-367" rx="56.0679" ry="18.3848"/>
<text text-anchor="middle" x="796.596" y="-363.4" font-family="Times Roman,serif" font-size="14.00">UserType</text>
</g>
<!-- UserType&#45;&gt;User -->
<g id="edge48" class="edge"><title>UserType&#45;&gt;User</title>
<path fill="none" stroke="#f9c934" d="M769.458,-344.24C748.59,-326.737 719.914,-302.686 699.184,-285.3"/>
<ellipse fill="none" stroke="#f9c934" cx="772.776" cy="-347.022" rx="4.00002" ry="4.00002"/>
<polygon fill="#f9c934" stroke="#f9c934" points="699.048,-285.185 694.277,-275.311 695.217,-281.972 691.386,-278.759 691.386,-278.759 691.386,-278.759 695.217,-281.972 688.494,-282.207 699.048,-285.185 699.048,-285.185"/>
</g>
<!-- Authlogic::Session::Base -->
<g id="node38" class="node"><title>Authlogic::Session::Base</title>
<ellipse fill="none" stroke="black" cx="1000.6" cy="-367" rx="130.108" ry="18.3848"/>
<text text-anchor="middle" x="1000.6" y="-363.4" font-family="Times Roman,serif" font-size="14.00">Authlogic::Session::Base</text>
</g>
<!-- Authlogic::Session::Base&#45;&gt;UserSession -->
<g id="edge42" class="edge"><title>Authlogic::Session::Base&#45;&gt;UserSession</title>
<path fill="none" stroke="black" d="M1000.6,-348.407C1000.6,-329.36 1000.6,-299.943 1000.6,-281.084"/>
</g>
</g>
</svg>
