<?xml version="1.0" encoding="UTF-8" standalone="no"?>
<!DOCTYPE svg PUBLIC "-//W3C//DTD SVG 1.1//EN"
 "http://www.w3.org/Graphics/SVG/1.1/DTD/svg11.dtd">
<!-- Generated by graphviz version 2.26.3 (20100126.1600)
 -->
<!-- Title: models_diagram Pages: 1 -->
<svg width="1761pt" height="936pt"
 viewBox="0.00 0.00 1761.17 936.00" xmlns="http://www.w3.org/2000/svg" xmlns:xlink="http://www.w3.org/1999/xlink">
<g id="graph1" class="graph" transform="scale(1 1) rotate(0) translate(4 932)">
<title>models_diagram</title>
<polygon fill="white" stroke="white" points="-4,5 -4,-932 1758.17,-932 1758.17,5 -4,5"/>
<!-- _diagram_info -->
<g id="node1" class="node"><title>_diagram_info</title>
<text text-anchor="start" x="422.174" y="-911.8" font-family="Times Roman,serif" font-size="13.00">Models diagram</text>
<text text-anchor="start" x="422.174" y="-894.8" font-family="Times Roman,serif" font-size="13.00">Date: May 31 2012 &#45; 16:33</text>
<text text-anchor="start" x="422.174" y="-877.8" font-family="Times Roman,serif" font-size="13.00">Migration version: 20120528205434</text>
<text text-anchor="start" x="422.174" y="-860.8" font-family="Times Roman,serif" font-size="13.00">Generated by RailRoady 1.0.7</text>
<text text-anchor="start" x="422.174" y="-843.8" font-family="Times Roman,serif" font-size="13.00">http://railroady.prestonlee.com</text>
</g>
<!-- ProgramAffiliation -->
<g id="node2" class="node"><title>ProgramAffiliation</title>
<polyline fill="none" stroke="black" points="281.674,-129 422.674,-129 "/>
<path fill="none" stroke="black" d="M422.674,-129C428.674,-129 434.674,-135 434.674,-141"/>
<polyline fill="none" stroke="black" points="434.674,-141 434.674,-187 "/>
<path fill="none" stroke="black" d="M434.674,-187C434.674,-193 428.674,-199 422.674,-199"/>
<polyline fill="none" stroke="black" points="422.674,-199 281.674,-199 "/>
<path fill="none" stroke="black" d="M281.674,-199C275.674,-199 269.674,-193 269.674,-187"/>
<polyline fill="none" stroke="black" points="269.674,-187 269.674,-141 "/>
<path fill="none" stroke="black" d="M269.674,-141C269.674,-135 275.674,-129 281.674,-129"/>
<text text-anchor="middle" x="352.174" y="-182.4" font-family="Times Roman,serif" font-size="14.00">ProgramAffiliation</text>
<polyline fill="none" stroke="black" points="269.674,-173 434.674,-173 "/>
<text text-anchor="start" x="277.674" y="-156.4" font-family="Times Roman,serif" font-size="14.00">created_at :datetime</text>
<text text-anchor="start" x="277.674" y="-138.4" font-family="Times Roman,serif" font-size="14.00">updated_at :datetime</text>
</g>
<!-- User -->
<g id="node3" class="node"><title>User</title>
<polyline fill="none" stroke="black" points="853.674,-437 1038.67,-437 "/>
<path fill="none" stroke="black" d="M1038.67,-437C1044.67,-437 1050.67,-443 1050.67,-449"/>
<polyline fill="none" stroke="black" points="1050.67,-449 1050.67,-783 "/>
<path fill="none" stroke="black" d="M1050.67,-783C1050.67,-789 1044.67,-795 1038.67,-795"/>
<polyline fill="none" stroke="black" points="1038.67,-795 853.674,-795 "/>
<path fill="none" stroke="black" d="M853.674,-795C847.674,-795 841.674,-789 841.674,-783"/>
<polyline fill="none" stroke="black" points="841.674,-783 841.674,-449 "/>
<path fill="none" stroke="black" d="M841.674,-449C841.674,-443 847.674,-437 853.674,-437"/>
<text text-anchor="middle" x="946.174" y="-778.4" font-family="Times Roman,serif" font-size="14.00">User</text>
<polyline fill="none" stroke="black" points="841.674,-769 1050.67,-769 "/>
<text text-anchor="start" x="849.674" y="-752.4" font-family="Times Roman,serif" font-size="14.00">email :string</text>
<text text-anchor="start" x="849.674" y="-734.4" font-family="Times Roman,serif" font-size="14.00">first_name :string</text>
<text text-anchor="start" x="849.674" y="-716.4" font-family="Times Roman,serif" font-size="14.00">last_name :string</text>
<text text-anchor="start" x="849.674" y="-698.4" font-family="Times Roman,serif" font-size="14.00">created_at :datetime</text>
<text text-anchor="start" x="849.674" y="-680.4" font-family="Times Roman,serif" font-size="14.00">updated_at :datetime</text>
<text text-anchor="start" x="849.674" y="-662.4" font-family="Times Roman,serif" font-size="14.00">password_salt :string</text>
<text text-anchor="start" x="849.674" y="-644.4" font-family="Times Roman,serif" font-size="14.00">persistence_token :string</text>
<text text-anchor="start" x="849.674" y="-626.4" font-family="Times Roman,serif" font-size="14.00">single_access_token :string</text>
<text text-anchor="start" x="849.674" y="-608.4" font-family="Times Roman,serif" font-size="14.00">perishable_token :string</text>
<text text-anchor="start" x="849.674" y="-590.4" font-family="Times Roman,serif" font-size="14.00">last_request_at :datetime</text>
<text text-anchor="start" x="849.674" y="-572.4" font-family="Times Roman,serif" font-size="14.00">current_login_at :datetime</text>
<text text-anchor="start" x="849.674" y="-554.4" font-family="Times Roman,serif" font-size="14.00">last_login_at :datetime</text>
<text text-anchor="start" x="849.674" y="-536.4" font-family="Times Roman,serif" font-size="14.00">current_login_ip :string</text>
<text text-anchor="start" x="849.674" y="-518.4" font-family="Times Roman,serif" font-size="14.00">last_login_ip :string</text>
<text text-anchor="start" x="849.674" y="-500.4" font-family="Times Roman,serif" font-size="14.00">crypted_password :string</text>
<text text-anchor="start" x="849.674" y="-482.4" font-family="Times Roman,serif" font-size="14.00">avatar_file_name :string</text>
<text text-anchor="start" x="849.674" y="-464.4" font-family="Times Roman,serif" font-size="14.00">avatar_content_type :string</text>
<text text-anchor="start" x="849.674" y="-446.4" font-family="Times Roman,serif" font-size="14.00">avatar_file_size :integer</text>
</g>
<!-- User&#45;&gt;ProgramAffiliation -->
<g id="edge24" class="edge"><title>User&#45;&gt;ProgramAffiliation</title>
<path fill="none" stroke="#c7e0e4" d="M833.598,-595.04C714.983,-567.048 531.124,-505.851 426.174,-382 383.382,-331.501 411.205,-300.055 388.174,-238 384.519,-228.154 379.996,-217.862 375.403,-208.19"/>
<ellipse fill="none" stroke="#c7e0e4" cx="837.773" cy="-596.011" rx="4.00001" ry="4.00001"/>
<polygon fill="#c7e0e4" stroke="#c7e0e4" points="375.377,-208.137 375.051,-197.176 373.191,-203.64 371.004,-199.143 371.004,-199.143 371.004,-199.143 373.191,-203.64 366.957,-201.111 375.377,-208.137 375.377,-208.137"/>
</g>
<!-- Major -->
<g id="node4" class="node"><title>Major</title>
<polyline fill="none" stroke="black" points="44.6736,-266 185.674,-266 "/>
<path fill="none" stroke="black" d="M185.674,-266C191.674,-266 197.674,-272 197.674,-278"/>
<polyline fill="none" stroke="black" points="197.674,-278 197.674,-342 "/>
<path fill="none" stroke="black" d="M197.674,-342C197.674,-348 191.674,-354 185.674,-354"/>
<polyline fill="none" stroke="black" points="185.674,-354 44.6736,-354 "/>
<path fill="none" stroke="black" d="M44.6736,-354C38.6736,-354 32.6736,-348 32.6736,-342"/>
<polyline fill="none" stroke="black" points="32.6736,-342 32.6736,-278 "/>
<path fill="none" stroke="black" d="M32.6736,-278C32.6736,-272 38.6736,-266 44.6736,-266"/>
<text text-anchor="middle" x="115.174" y="-337.4" font-family="Times Roman,serif" font-size="14.00">Major</text>
<polyline fill="none" stroke="black" points="32.6736,-328 197.674,-328 "/>
<text text-anchor="start" x="40.6736" y="-311.4" font-family="Times Roman,serif" font-size="14.00">name :string</text>
<text text-anchor="start" x="40.6736" y="-293.4" font-family="Times Roman,serif" font-size="14.00">created_at :datetime</text>
<text text-anchor="start" x="40.6736" y="-275.4" font-family="Times Roman,serif" font-size="14.00">updated_at :datetime</text>
</g>
<!-- User&#45;&gt;Major -->
<g id="edge18" class="edge"><title>User&#45;&gt;Major</title>
<path fill="none" stroke="#0dfe17" d="M831.424,-593.317C681.469,-560.692 413.572,-492.042 206.174,-382 194.687,-375.905 183.208,-368.307 172.462,-360.35"/>
<polygon fill="#0dfe17" stroke="#0dfe17" points="831.797,-593.397 840.622,-599.907 836.684,-594.453 841.572,-595.509 841.572,-595.509 841.572,-595.509 836.684,-594.453 842.522,-591.11 831.797,-593.397 831.797,-593.397"/>
<polygon fill="#0dfe17" stroke="#0dfe17" points="172.358,-360.271 167.125,-350.634 168.379,-357.243 164.4,-354.215 164.4,-354.215 164.4,-354.215 168.379,-357.243 161.675,-357.796 172.358,-360.271 172.358,-360.271"/>
</g>
<!-- TeamMembership -->
<g id="node6" class="node"><title>TeamMembership</title>
<polyline fill="none" stroke="black" points="95.6736,-1 236.674,-1 "/>
<path fill="none" stroke="black" d="M236.674,-1C242.674,-1 248.674,-7 248.674,-13"/>
<polyline fill="none" stroke="black" points="248.674,-13 248.674,-77 "/>
<path fill="none" stroke="black" d="M248.674,-77C248.674,-83 242.674,-89 236.674,-89"/>
<polyline fill="none" stroke="black" points="236.674,-89 95.6736,-89 "/>
<path fill="none" stroke="black" d="M95.6736,-89C89.6736,-89 83.6736,-83 83.6736,-77"/>
<polyline fill="none" stroke="black" points="83.6736,-77 83.6736,-13 "/>
<path fill="none" stroke="black" d="M83.6736,-13C83.6736,-7 89.6736,-1 95.6736,-1"/>
<text text-anchor="middle" x="166.174" y="-72.4" font-family="Times Roman,serif" font-size="14.00">TeamMembership</text>
<polyline fill="none" stroke="black" points="83.6736,-63 248.674,-63 "/>
<text text-anchor="start" x="91.6736" y="-46.4" font-family="Times Roman,serif" font-size="14.00">created_at :datetime</text>
<text text-anchor="start" x="91.6736" y="-28.4" font-family="Times Roman,serif" font-size="14.00">updated_at :datetime</text>
<text text-anchor="start" x="91.6736" y="-10.4" font-family="Times Roman,serif" font-size="14.00">leader :boolean</text>
</g>
<!-- User&#45;&gt;TeamMembership -->
<g id="edge28" class="edge"><title>User&#45;&gt;TeamMembership</title>
<path fill="none" stroke="#7b0b52" d="M833.345,-604.4C609.754,-578.838 123.396,-509.55 24.1736,-382 -44.6562,-293.519 49.0095,-166.779 113.763,-96.646"/>
<ellipse fill="none" stroke="#7b0b52" cx="837.538" cy="-604.876" rx="4.00001" ry="4.00001"/>
<polygon fill="#7b0b52" stroke="#7b0b52" points="113.886,-96.5138 124.004,-92.2833 117.302,-92.8617 120.717,-89.2097 120.717,-89.2097 120.717,-89.2097 117.302,-92.8617 117.43,-86.1361 113.886,-96.5138 113.886,-96.5138"/>
</g>
<!-- Program -->
<g id="node7" class="node"><title>Program</title>
<polyline fill="none" stroke="black" points="226.674,-266 367.674,-266 "/>
<path fill="none" stroke="black" d="M367.674,-266C373.674,-266 379.674,-272 379.674,-278"/>
<polyline fill="none" stroke="black" points="379.674,-278 379.674,-342 "/>
<path fill="none" stroke="black" d="M379.674,-342C379.674,-348 373.674,-354 367.674,-354"/>
<polyline fill="none" stroke="black" points="367.674,-354 226.674,-354 "/>
<path fill="none" stroke="black" d="M226.674,-354C220.674,-354 214.674,-348 214.674,-342"/>
<polyline fill="none" stroke="black" points="214.674,-342 214.674,-278 "/>
<path fill="none" stroke="black" d="M214.674,-278C214.674,-272 220.674,-266 226.674,-266"/>
<text text-anchor="middle" x="297.174" y="-337.4" font-family="Times Roman,serif" font-size="14.00">Program</text>
<polyline fill="none" stroke="black" points="214.674,-328 379.674,-328 "/>
<text text-anchor="start" x="222.674" y="-311.4" font-family="Times Roman,serif" font-size="14.00">name :string</text>
<text text-anchor="start" x="222.674" y="-293.4" font-family="Times Roman,serif" font-size="14.00">created_at :datetime</text>
<text text-anchor="start" x="222.674" y="-275.4" font-family="Times Roman,serif" font-size="14.00">updated_at :datetime</text>
</g>
<!-- User&#45;&gt;Program -->
<g id="edge26" class="edge"><title>User&#45;&gt;Program</title>
<path fill="none" stroke="#b00d97" d="M831.716,-592.7C714.208,-564.906 529.724,-510.22 393.174,-418 371.064,-403.068 350.757,-381.905 334.57,-362.263"/>
<polygon fill="#b00d97" stroke="#b00d97" points="831.728,-592.703 840.44,-599.362 836.596,-593.842 841.465,-594.981 841.465,-594.981 841.465,-594.981 836.596,-593.842 842.49,-590.599 831.728,-592.703 831.728,-592.703"/>
<polygon fill="#b00d97" stroke="#b00d97" points="334.392,-362.041 331.626,-351.43 331.256,-358.147 328.121,-354.252 328.121,-354.252 328.121,-354.252 331.256,-358.147 324.615,-357.074 334.392,-362.041 334.392,-362.041"/>
</g>
<!-- Authentication -->
<g id="node8" class="node"><title>Authentication</title>
<polyline fill="none" stroke="black" points="446.674,-239 587.674,-239 "/>
<path fill="none" stroke="black" d="M587.674,-239C593.674,-239 599.674,-245 599.674,-251"/>
<polyline fill="none" stroke="black" points="599.674,-251 599.674,-369 "/>
<path fill="none" stroke="black" d="M599.674,-369C599.674,-375 593.674,-381 587.674,-381"/>
<polyline fill="none" stroke="black" points="587.674,-381 446.674,-381 "/>
<path fill="none" stroke="black" d="M446.674,-381C440.674,-381 434.674,-375 434.674,-369"/>
<polyline fill="none" stroke="black" points="434.674,-369 434.674,-251 "/>
<path fill="none" stroke="black" d="M434.674,-251C434.674,-245 440.674,-239 446.674,-239"/>
<text text-anchor="middle" x="517.174" y="-364.4" font-family="Times Roman,serif" font-size="14.00">Authentication</text>
<polyline fill="none" stroke="black" points="434.674,-355 599.674,-355 "/>
<text text-anchor="start" x="442.674" y="-338.4" font-family="Times Roman,serif" font-size="14.00">provider :string</text>
<text text-anchor="start" x="442.674" y="-320.4" font-family="Times Roman,serif" font-size="14.00">uid :string</text>
<text text-anchor="start" x="442.674" y="-302.4" font-family="Times Roman,serif" font-size="14.00">created_at :datetime</text>
<text text-anchor="start" x="442.674" y="-284.4" font-family="Times Roman,serif" font-size="14.00">updated_at :datetime</text>
<text text-anchor="start" x="442.674" y="-266.4" font-family="Times Roman,serif" font-size="14.00">token :string</text>
<text text-anchor="start" x="442.674" y="-248.4" font-family="Times Roman,serif" font-size="14.00">secret :string</text>
</g>
<!-- User&#45;&gt;Authentication -->
<g id="edge32" class="edge"><title>User&#45;&gt;Authentication</title>
<path fill="none" stroke="#2f7275" d="M834.085,-560.591C766.689,-524.621 681.101,-474.096 613.174,-418 602.329,-409.044 591.631,-398.832 581.534,-388.342"/>
<ellipse fill="none" stroke="#2f7275" cx="837.845" cy="-562.589" rx="4.00002" ry="4.00002"/>
<polygon fill="#2f7275" stroke="#2f7275" points="581.512,-388.318 577.917,-377.958 578.079,-384.683 574.646,-381.048 574.646,-381.048 574.646,-381.048 578.079,-384.683 571.374,-384.137 581.512,-388.318 581.512,-388.318"/>
</g>
<!-- Startup -->
<g id="node9" class="node"><title>Startup</title>
<polyline fill="none" stroke="black" points="848.674,-266 989.674,-266 "/>
<path fill="none" stroke="black" d="M989.674,-266C995.674,-266 1001.67,-272 1001.67,-278"/>
<polyline fill="none" stroke="black" points="1001.67,-278 1001.67,-342 "/>
<path fill="none" stroke="black" d="M1001.67,-342C1001.67,-348 995.674,-354 989.674,-354"/>
<polyline fill="none" stroke="black" points="989.674,-354 848.674,-354 "/>
<path fill="none" stroke="black" d="M848.674,-354C842.674,-354 836.674,-348 836.674,-342"/>
<polyline fill="none" stroke="black" points="836.674,-342 836.674,-278 "/>
<path fill="none" stroke="black" d="M836.674,-278C836.674,-272 842.674,-266 848.674,-266"/>
<text text-anchor="middle" x="919.174" y="-337.4" font-family="Times Roman,serif" font-size="14.00">Startup</text>
<polyline fill="none" stroke="black" points="836.674,-328 1001.67,-328 "/>
<text text-anchor="start" x="844.674" y="-311.4" font-family="Times Roman,serif" font-size="14.00">name :string</text>
<text text-anchor="start" x="844.674" y="-293.4" font-family="Times Roman,serif" font-size="14.00">created_at :datetime</text>
<text text-anchor="start" x="844.674" y="-275.4" font-family="Times Roman,serif" font-size="14.00">updated_at :datetime</text>
</g>
<!-- User&#45;&gt;Startup -->
<g id="edge34" class="edge"><title>User&#45;&gt;Startup</title>
<path fill="none" stroke="#3c6043" d="M929.625,-428.448C927.568,-405.14 925.611,-382.961 923.959,-364.23"/>
<ellipse fill="none" stroke="#3c6043" cx="929.999" cy="-432.686" rx="4" ry="4"/>
<polygon fill="#3c6043" stroke="#3c6043" points="923.952,-364.156 927.556,-353.799 923.513,-359.175 923.073,-354.194 923.073,-354.194 923.073,-354.194 923.513,-359.175 918.591,-354.59 923.952,-364.156 923.952,-364.156"/>
</g>
<!-- Organization -->
<g id="node10" class="node"><title>Organization</title>
<polyline fill="none" stroke="black" points="666.674,-266 807.674,-266 "/>
<path fill="none" stroke="black" d="M807.674,-266C813.674,-266 819.674,-272 819.674,-278"/>
<polyline fill="none" stroke="black" points="819.674,-278 819.674,-342 "/>
<path fill="none" stroke="black" d="M819.674,-342C819.674,-348 813.674,-354 807.674,-354"/>
<polyline fill="none" stroke="black" points="807.674,-354 666.674,-354 "/>
<path fill="none" stroke="black" d="M666.674,-354C660.674,-354 654.674,-348 654.674,-342"/>
<polyline fill="none" stroke="black" points="654.674,-342 654.674,-278 "/>
<path fill="none" stroke="black" d="M654.674,-278C654.674,-272 660.674,-266 666.674,-266"/>
<text text-anchor="middle" x="737.174" y="-337.4" font-family="Times Roman,serif" font-size="14.00">Organization</text>
<polyline fill="none" stroke="black" points="654.674,-328 819.674,-328 "/>
<text text-anchor="start" x="662.674" y="-311.4" font-family="Times Roman,serif" font-size="14.00">name :string</text>
<text text-anchor="start" x="662.674" y="-293.4" font-family="Times Roman,serif" font-size="14.00">created_at :datetime</text>
<text text-anchor="start" x="662.674" y="-275.4" font-family="Times Roman,serif" font-size="14.00">updated_at :datetime</text>
</g>
<!-- User&#45;&gt;Organization -->
<g id="edge22" class="edge"><title>User&#45;&gt;Organization</title>
<path fill="none" stroke="#229668" d="M835.634,-454.158C812.953,-420.95 790.653,-388.3 773.027,-362.493"/>
<polygon fill="#229668" stroke="#229668" points="835.727,-454.294 837.652,-465.09 838.547,-458.423 841.367,-462.552 841.367,-462.552 841.367,-462.552 838.547,-458.423 845.083,-460.014 835.727,-454.294 835.727,-454.294"/>
<polygon fill="#229668" stroke="#229668" points="772.874,-362.27 770.95,-351.474 770.054,-358.141 767.234,-354.012 767.234,-354.012 767.234,-354.012 770.054,-358.141 763.518,-356.55 772.874,-362.27 772.874,-362.27"/>
</g>
<!-- Team -->
<g id="node13" class="node"><title>Team</title>
<polyline fill="none" stroke="black" points="556.674,-129 697.674,-129 "/>
<path fill="none" stroke="black" d="M697.674,-129C703.674,-129 709.674,-135 709.674,-141"/>
<polyline fill="none" stroke="black" points="709.674,-141 709.674,-187 "/>
<path fill="none" stroke="black" d="M709.674,-187C709.674,-193 703.674,-199 697.674,-199"/>
<polyline fill="none" stroke="black" points="697.674,-199 556.674,-199 "/>
<path fill="none" stroke="black" d="M556.674,-199C550.674,-199 544.674,-193 544.674,-187"/>
<polyline fill="none" stroke="black" points="544.674,-187 544.674,-141 "/>
<path fill="none" stroke="black" d="M544.674,-141C544.674,-135 550.674,-129 556.674,-129"/>
<text text-anchor="middle" x="627.174" y="-182.4" font-family="Times Roman,serif" font-size="14.00">Team</text>
<polyline fill="none" stroke="black" points="544.674,-173 709.674,-173 "/>
<text text-anchor="start" x="552.674" y="-156.4" font-family="Times Roman,serif" font-size="14.00">created_at :datetime</text>
<text text-anchor="start" x="552.674" y="-138.4" font-family="Times Roman,serif" font-size="14.00">updated_at :datetime</text>
</g>
<!-- User&#45;&gt;Team -->
<g id="edge30" class="edge"><title>User&#45;&gt;Team</title>
<path fill="none" stroke="#a82397" d="M832.604,-558.472C766.339,-518.498 687.818,-458.656 646.174,-382 616.921,-328.154 616.988,-255.616 621.041,-209.318"/>
<polygon fill="#a82397" stroke="#a82397" points="832.857,-558.623 839.15,-567.604 837.154,-561.18 841.451,-563.736 841.451,-563.736 841.451,-563.736 837.154,-561.18 843.752,-559.869 832.857,-558.623 832.857,-558.623"/>
<polygon fill="#a82397" stroke="#a82397" points="621.049,-209.236 626.497,-199.719 621.534,-204.26 622.018,-199.283 622.018,-199.283 622.018,-199.283 621.534,-204.26 617.539,-198.847 621.049,-209.236 621.049,-209.236"/>
</g>
<!-- Minor -->
<g id="node14" class="node"><title>Minor</title>
<polyline fill="none" stroke="black" points="1030.67,-266 1171.67,-266 "/>
<path fill="none" stroke="black" d="M1171.67,-266C1177.67,-266 1183.67,-272 1183.67,-278"/>
<polyline fill="none" stroke="black" points="1183.67,-278 1183.67,-342 "/>
<path fill="none" stroke="black" d="M1183.67,-342C1183.67,-348 1177.67,-354 1171.67,-354"/>
<polyline fill="none" stroke="black" points="1171.67,-354 1030.67,-354 "/>
<path fill="none" stroke="black" d="M1030.67,-354C1024.67,-354 1018.67,-348 1018.67,-342"/>
<polyline fill="none" stroke="black" points="1018.67,-342 1018.67,-278 "/>
<path fill="none" stroke="black" d="M1018.67,-278C1018.67,-272 1024.67,-266 1030.67,-266"/>
<text text-anchor="middle" x="1101.17" y="-337.4" font-family="Times Roman,serif" font-size="14.00">Minor</text>
<polyline fill="none" stroke="black" points="1018.67,-328 1183.67,-328 "/>
<text text-anchor="start" x="1026.67" y="-311.4" font-family="Times Roman,serif" font-size="14.00">name :string</text>
<text text-anchor="start" x="1026.67" y="-293.4" font-family="Times Roman,serif" font-size="14.00">created_at :datetime</text>
<text text-anchor="start" x="1026.67" y="-275.4" font-family="Times Roman,serif" font-size="14.00">updated_at :datetime</text>
</g>
<!-- User&#45;&gt;Minor -->
<g id="edge20" class="edge"><title>User&#45;&gt;Minor</title>
<path fill="none" stroke="#3bc014" d="M944.555,-427.431C948.655,-417.711 953.796,-408.477 960.174,-400 974.373,-381.126 989.532,-393.477 1010.17,-382 1021.4,-375.759 1032.68,-368.161 1043.28,-360.27"/>
<polygon fill="#3bc014" stroke="#3bc014" points="944.509,-427.551 936.734,-435.284 942.723,-432.221 940.937,-436.891 940.937,-436.891 940.937,-436.891 942.723,-432.221 945.14,-438.499 944.509,-427.551 944.509,-427.551"/>
<polygon fill="#3bc014" stroke="#3bc014" points="1043.3,-360.257 1053.98,-357.774 1047.28,-357.226 1051.25,-354.195 1051.25,-354.195 1051.25,-354.195 1047.28,-357.226 1048.52,-350.616 1043.3,-360.257 1043.3,-360.257"/>
</g>
<!-- ActsAsTaggableOn::Tagging -->
<g id="node17" class="node"><title>ActsAsTaggableOn::Tagging</title>
<ellipse fill="none" stroke="black" cx="1345.17" cy="-310" rx="144.25" ry="18.3848"/>
<text text-anchor="middle" x="1345.17" y="-306.4" font-family="Times Roman,serif" font-size="14.00">ActsAsTaggableOn::Tagging</text>
</g>
<!-- User&#45;&gt;ActsAsTaggableOn::Tagging -->
<g id="edge2" class="edge"><title>User&#45;&gt;ActsAsTaggableOn::Tagging</title>
<path fill="none" stroke="#b4410f" d="M1057.99,-559.729C1169.44,-503.414 1324.72,-424.23 1329.17,-418 1345.61,-394.996 1348.32,-362.135 1347.73,-338.713"/>
<ellipse fill="none" stroke="#b4410f" cx="1054.28" cy="-561.601" rx="4.00002" ry="4.00002"/>
<polygon fill="#b4410f" stroke="#b4410f" points="1347.73,-338.674 1351.75,-328.474 1347.49,-333.679 1347.26,-328.685 1347.26,-328.685 1347.26,-328.685 1347.49,-333.679 1342.76,-328.895 1347.73,-338.674 1347.73,-338.674"/>
<text text-anchor="middle" x="1366.67" y="-405.4" font-family="Times Roman,serif" font-size="14.00">taggings</text>
</g>
<!-- User&#45;&gt;ActsAsTaggableOn::Tagging -->
<g id="edge6" class="edge"><title>User&#45;&gt;ActsAsTaggableOn::Tagging</title>
<path fill="none" stroke="#ee3082" d="M957.633,-429.493C963.535,-418.595 970.943,-408.594 980.174,-400 1014.78,-367.783 1146.51,-394.259 1192.17,-382 1232.9,-371.067 1276.09,-349.735 1306.16,-333.116"/>
<ellipse fill="none" stroke="#ee3082" cx="955.766" cy="-433.206" rx="4.00002" ry="4.00002"/>
<polygon fill="#ee3082" stroke="#ee3082" points="1306.33,-333.02 1317.26,-332.051 1310.69,-330.573 1315.05,-328.126 1315.05,-328.126 1315.05,-328.126 1310.69,-330.573 1312.85,-324.202 1306.33,-333.02 1306.33,-333.02"/>
<text text-anchor="middle" x="1024.67" y="-405.4" font-family="Times Roman,serif" font-size="14.00">tag_taggings</text>
</g>
<!-- User&#45;&gt;ActsAsTaggableOn::Tagging -->
<g id="edge10" class="edge"><title>User&#45;&gt;ActsAsTaggableOn::Tagging</title>
<path fill="none" stroke="#6bdb89" d="M1055.73,-437.972C1069.16,-420.523 1081.79,-406.765 1092.17,-400 1130.02,-375.356 1149.15,-395.732 1192.17,-382 1231.58,-369.42 1273.97,-348.873 1304.11,-332.941"/>
<ellipse fill="none" stroke="#6bdb89" cx="1053.16" cy="-441.371" rx="4.00002" ry="4.00002"/>
<polygon fill="#6bdb89" stroke="#6bdb89" points="1304.24,-332.874 1315.18,-332.127 1308.65,-330.517 1313.05,-328.159 1313.05,-328.159 1313.05,-328.159 1308.65,-330.517 1310.93,-324.191 1304.24,-332.874 1304.24,-332.874"/>
<text text-anchor="middle" x="1138.67" y="-405.4" font-family="Times Roman,serif" font-size="14.00">skill_taggings</text>
</g>
<!-- User&#45;&gt;ActsAsTaggableOn::Tagging -->
<g id="edge14" class="edge"><title>User&#45;&gt;ActsAsTaggableOn::Tagging</title>
<path fill="none" stroke="#9ea2ca" d="M1057.2,-526.601C1097.95,-493.117 1144.13,-454.37 1185.17,-418 1193.88,-410.285 1195.01,-407.162 1204.17,-400 1236.22,-374.966 1275.39,-350.393 1304.3,-333.266"/>
<ellipse fill="none" stroke="#9ea2ca" cx="1054.06" cy="-529.178" rx="4.00002" ry="4.00002"/>
<polygon fill="#9ea2ca" stroke="#9ea2ca" points="1304.31,-333.264 1315.21,-332.077 1308.62,-330.731 1312.93,-328.198 1312.93,-328.198 1312.93,-328.198 1308.62,-330.731 1310.65,-324.318 1304.31,-333.264 1304.31,-333.264"/>
<text text-anchor="middle" x="1264.67" y="-405.4" font-family="Times Roman,serif" font-size="14.00">interest_taggings</text>
</g>
<!-- ActsAsTaggableOn::Tag -->
<g id="node19" class="node"><title>ActsAsTaggableOn::Tag</title>
<ellipse fill="none" stroke="black" cx="1630.17" cy="-310" rx="123.243" ry="18.3848"/>
<text text-anchor="middle" x="1630.17" y="-306.4" font-family="Times Roman,serif" font-size="14.00">ActsAsTaggableOn::Tag</text>
</g>
<!-- User&#45;&gt;ActsAsTaggableOn::Tag -->
<g id="edge4" class="edge"><title>User&#45;&gt;ActsAsTaggableOn::Tag</title>
<path fill="none" stroke="#648970" d="M1059.69,-542.857C1126.6,-503.725 1214.51,-458.973 1299.17,-436 1332.26,-427.023 1581.17,-440.337 1607.17,-418 1629.57,-398.764 1633.34,-363.588 1632.8,-338.612"/>
<polygon fill="#648970" stroke="#648970" points="1059.42,-543.014 1048.52,-544.214 1055.11,-545.553 1050.8,-548.091 1050.8,-548.091 1050.8,-548.091 1055.11,-545.553 1053.09,-551.968 1059.42,-543.014 1059.42,-543.014"/>
<polygon fill="#648970" stroke="#648970" points="1632.79,-338.598 1636.83,-328.402 1632.57,-333.603 1632.34,-328.608 1632.34,-328.608 1632.34,-328.608 1632.57,-333.603 1627.84,-328.814 1632.79,-338.598 1632.79,-338.598"/>
<text text-anchor="middle" x="1653.67" y="-405.4" font-family="Times Roman,serif" font-size="14.00">base_tags</text>
</g>
<!-- User&#45;&gt;ActsAsTaggableOn::Tag -->
<g id="edge8" class="edge"><title>User&#45;&gt;ActsAsTaggableOn::Tag</title>
<path fill="none" stroke="#b6cc13" d="M1059.69,-547.238C1127.12,-509.2 1215.54,-464.082 1299.17,-436 1342.4,-421.486 1356.89,-432.343 1400.17,-418 1417.15,-412.373 1419.52,-406.52 1436.17,-400 1462.89,-389.541 1471.65,-392.934 1498.17,-382 1531.31,-368.341 1566.88,-348.621 1592.73,-333.271"/>
<polygon fill="#b6cc13" stroke="#b6cc13" points="1059.43,-547.382 1048.51,-548.402 1055.08,-549.849 1050.73,-552.316 1050.73,-552.316 1050.73,-552.316 1055.08,-549.849 1052.95,-556.23 1059.43,-547.382 1059.43,-547.382"/>
<polygon fill="#b6cc13" stroke="#b6cc13" points="1592.88,-333.184 1603.77,-331.9 1597.16,-330.613 1601.45,-328.041 1601.45,-328.041 1601.45,-328.041 1597.16,-330.613 1599.14,-324.182 1592.88,-333.184 1592.88,-333.184"/>
<text text-anchor="middle" x="1451.17" y="-405.4" font-family="Times Roman,serif" font-size="14.00">tags</text>
</g>
<!-- User&#45;&gt;ActsAsTaggableOn::Tag -->
<g id="edge12" class="edge"><title>User&#45;&gt;ActsAsTaggableOn::Tag</title>
<path fill="none" stroke="#7e1132" d="M1059.75,-544.636C1126.86,-505.968 1214.94,-461.087 1299.17,-436 1370.72,-414.692 1397.01,-446.085 1466.17,-418 1478.2,-413.117 1478.58,-407.501 1489.17,-400 1523,-376.048 1562.94,-350.827 1591.66,-333.198"/>
<polygon fill="#7e1132" stroke="#7e1132" points="1059.49,-544.786 1048.58,-545.912 1055.17,-547.295 1050.84,-549.804 1050.84,-549.804 1050.84,-549.804 1055.17,-547.295 1053.1,-553.697 1059.49,-544.786 1059.49,-544.786"/>
<polygon fill="#7e1132" stroke="#7e1132" points="1591.66,-333.197 1602.54,-331.82 1595.93,-330.589 1600.19,-327.98 1600.19,-327.98 1600.19,-327.98 1595.93,-330.589 1597.85,-324.141 1591.66,-333.197 1591.66,-333.197"/>
<text text-anchor="middle" x="1506.17" y="-405.4" font-family="Times Roman,serif" font-size="14.00">skills</text>
</g>
<!-- User&#45;&gt;ActsAsTaggableOn::Tag -->
<g id="edge16" class="edge"><title>User&#45;&gt;ActsAsTaggableOn::Tag</title>
<path fill="none" stroke="#3a2d8c" d="M1059.88,-543.553C1126.85,-504.65 1214.76,-459.895 1299.17,-436 1395.27,-408.796 1432.6,-460.1 1523.17,-418 1525.78,-416.79 1574.3,-367.305 1605.1,-335.746"/>
<polygon fill="#3a2d8c" stroke="#3a2d8c" points="1059.62,-543.706 1048.71,-544.871 1055.3,-546.231 1050.99,-548.755 1050.99,-548.755 1050.99,-548.755 1055.3,-546.231 1053.26,-552.64 1059.62,-543.706 1059.62,-543.706"/>
<polygon fill="#3a2d8c" stroke="#3a2d8c" points="1605.15,-335.694 1615.35,-331.678 1608.64,-332.115 1612.13,-328.535 1612.13,-328.535 1612.13,-328.535 1608.64,-332.115 1608.91,-325.393 1605.15,-335.694 1605.15,-335.694"/>
<text text-anchor="middle" x="1570.67" y="-405.4" font-family="Times Roman,serif" font-size="14.00">interests</text>
</g>
<!-- Skill -->
<g id="node5" class="node"><title>Skill</title>
<polyline fill="none" stroke="black" points="693.674,-837 834.674,-837 "/>
<path fill="none" stroke="black" d="M834.674,-837C840.674,-837 846.674,-843 846.674,-849"/>
<polyline fill="none" stroke="black" points="846.674,-849 846.674,-913 "/>
<path fill="none" stroke="black" d="M846.674,-913C846.674,-919 840.674,-925 834.674,-925"/>
<polyline fill="none" stroke="black" points="834.674,-925 693.674,-925 "/>
<path fill="none" stroke="black" d="M693.674,-925C687.674,-925 681.674,-919 681.674,-913"/>
<polyline fill="none" stroke="black" points="681.674,-913 681.674,-849 "/>
<path fill="none" stroke="black" d="M681.674,-849C681.674,-843 687.674,-837 693.674,-837"/>
<text text-anchor="middle" x="764.174" y="-908.4" font-family="Times Roman,serif" font-size="14.00">Skill</text>
<polyline fill="none" stroke="black" points="681.674,-899 846.674,-899 "/>
<text text-anchor="start" x="689.674" y="-882.4" font-family="Times Roman,serif" font-size="14.00">name :string</text>
<text text-anchor="start" x="689.674" y="-864.4" font-family="Times Roman,serif" font-size="14.00">created_at :datetime</text>
<text text-anchor="start" x="689.674" y="-846.4" font-family="Times Roman,serif" font-size="14.00">updated_at :datetime</text>
</g>
<!-- Skill&#45;&gt;User -->
<g id="edge36" class="edge"><title>Skill&#45;&gt;User</title>
<path fill="none" stroke="#df0f6c" d="M800.244,-828.481C810.821,-813.079 822.982,-795.373 835.673,-776.894"/>
<polygon fill="#df0f6c" stroke="#df0f6c" points="800.093,-828.7 790.722,-834.396 797.262,-832.822 794.432,-836.943 794.432,-836.943 794.432,-836.943 797.262,-832.822 798.141,-839.491 800.093,-828.7 800.093,-828.7"/>
<polygon fill="#df0f6c" stroke="#df0f6c" points="835.876,-776.598 845.247,-770.903 838.707,-772.477 841.537,-768.355 841.537,-768.355 841.537,-768.355 838.707,-772.477 837.828,-765.807 835.876,-776.598 835.876,-776.598"/>
</g>
<!-- Program&#45;&gt;ProgramAffiliation -->
<g id="edge38" class="edge"><title>Program&#45;&gt;ProgramAffiliation</title>
<path fill="none" stroke="#2a943e" d="M316.703,-258.158C322.792,-241.996 329.451,-224.319 335.338,-208.691"/>
<ellipse fill="none" stroke="#2a943e" cx="315.235" cy="-262.056" rx="4.00001" ry="4.00001"/>
<polygon fill="#2a943e" stroke="#2a943e" points="335.367,-208.615 343.103,-200.843 337.129,-203.936 338.892,-199.257 338.892,-199.257 338.892,-199.257 337.129,-203.936 334.681,-197.67 335.367,-208.615 335.367,-208.615"/>
</g>
<!-- Startup&#45;&gt;Team -->
<g id="edge40" class="edge"><title>Startup&#45;&gt;Team</title>
<path fill="none" stroke="#4e6ba5" d="M862.799,-260.962C851.746,-252.649 839.925,-244.589 828.174,-238 793.798,-218.724 753.435,-202.725 717.934,-190.594"/>
<ellipse fill="none" stroke="#4e6ba5" cx="866.037" cy="-263.443" rx="4.00002" ry="4.00002"/>
<ellipse fill="#4e6ba5" stroke="#4e6ba5" cx="713.757" cy="-189.186" rx="4.00001" ry="4.00001"/>
</g>
<!-- UserSession -->
<g id="node11" class="node"><title>UserSession</title>
<polygon fill="none" stroke="black" points="1308.17,-590 1308.17,-642 1408.17,-642 1408.17,-590 1308.17,-590"/>
<text text-anchor="middle" x="1358.17" y="-625.4" font-family="Times Roman,serif" font-size="14.00">UserSession</text>
<polyline fill="none" stroke="black" points="1308.17,-616 1408.17,-616 "/>
<text text-anchor="middle" x="1358.17" y="-599.4" font-family="Times Roman,serif" font-size="14.00"> </text>
</g>
<!-- Interest -->
<g id="node12" class="node"><title>Interest</title>
<polyline fill="none" stroke="black" points="875.674,-837 1016.67,-837 "/>
<path fill="none" stroke="black" d="M1016.67,-837C1022.67,-837 1028.67,-843 1028.67,-849"/>
<polyline fill="none" stroke="black" points="1028.67,-849 1028.67,-913 "/>
<path fill="none" stroke="black" d="M1028.67,-913C1028.67,-919 1022.67,-925 1016.67,-925"/>
<polyline fill="none" stroke="black" points="1016.67,-925 875.674,-925 "/>
<path fill="none" stroke="black" d="M875.674,-925C869.674,-925 863.674,-919 863.674,-913"/>
<polyline fill="none" stroke="black" points="863.674,-913 863.674,-849 "/>
<path fill="none" stroke="black" d="M863.674,-849C863.674,-843 869.674,-837 875.674,-837"/>
<text text-anchor="middle" x="946.174" y="-908.4" font-family="Times Roman,serif" font-size="14.00">Interest</text>
<polyline fill="none" stroke="black" points="863.674,-899 1028.67,-899 "/>
<text text-anchor="start" x="871.674" y="-882.4" font-family="Times Roman,serif" font-size="14.00">name :string</text>
<text text-anchor="start" x="871.674" y="-864.4" font-family="Times Roman,serif" font-size="14.00">created_at :datetime</text>
<text text-anchor="start" x="871.674" y="-846.4" font-family="Times Roman,serif" font-size="14.00">updated_at :datetime</text>
</g>
<!-- Interest&#45;&gt;User -->
<g id="edge44" class="edge"><title>Interest&#45;&gt;User</title>
<path fill="none" stroke="#c5c326" d="M946.174,-826.709C946.174,-819.918 946.174,-812.7 946.174,-805.182"/>
<polygon fill="#c5c326" stroke="#c5c326" points="946.174,-826.943 941.674,-836.943 946.174,-831.943 946.174,-836.943 946.174,-836.943 946.174,-836.943 946.174,-831.943 950.674,-836.943 946.174,-826.943 946.174,-826.943"/>
<polygon fill="#c5c326" stroke="#c5c326" points="946.174,-805.137 950.674,-795.136 946.174,-800.137 946.174,-795.137 946.174,-795.137 946.174,-795.137 946.174,-800.137 941.674,-795.137 946.174,-805.137 946.174,-805.137"/>
</g>
<!-- Team&#45;&gt;TeamMembership -->
<g id="edge46" class="edge"><title>Team&#45;&gt;TeamMembership</title>
<path fill="none" stroke="#5eb65b" d="M536.527,-140.601C456.375,-119.911 339.95,-89.8576 259.115,-68.9913"/>
<ellipse fill="none" stroke="#5eb65b" cx="540.617" cy="-141.657" rx="4.00001" ry="4.00001"/>
<polygon fill="#5eb65b" stroke="#5eb65b" points="258.626,-68.8653 250.069,-62.0087 253.785,-67.6156 248.944,-66.3658 248.944,-66.3658 248.944,-66.3658 253.785,-67.6156 247.819,-70.723 258.626,-68.8653 258.626,-68.8653"/>
</g>
<!-- UserType -->
<g id="node15" class="node"><title>UserType</title>
<polyline fill="none" stroke="black" points="1057.67,-837 1198.67,-837 "/>
<path fill="none" stroke="black" d="M1198.67,-837C1204.67,-837 1210.67,-843 1210.67,-849"/>
<polyline fill="none" stroke="black" points="1210.67,-849 1210.67,-913 "/>
<path fill="none" stroke="black" d="M1210.67,-913C1210.67,-919 1204.67,-925 1198.67,-925"/>
<polyline fill="none" stroke="black" points="1198.67,-925 1057.67,-925 "/>
<path fill="none" stroke="black" d="M1057.67,-925C1051.67,-925 1045.67,-919 1045.67,-913"/>
<polyline fill="none" stroke="black" points="1045.67,-913 1045.67,-849 "/>
<path fill="none" stroke="black" d="M1045.67,-849C1045.67,-843 1051.67,-837 1057.67,-837"/>
<text text-anchor="middle" x="1128.17" y="-908.4" font-family="Times Roman,serif" font-size="14.00">UserType</text>
<polyline fill="none" stroke="black" points="1045.67,-899 1210.67,-899 "/>
<text text-anchor="start" x="1053.67" y="-882.4" font-family="Times Roman,serif" font-size="14.00">name :string</text>
<text text-anchor="start" x="1053.67" y="-864.4" font-family="Times Roman,serif" font-size="14.00">created_at :datetime</text>
<text text-anchor="start" x="1053.67" y="-846.4" font-family="Times Roman,serif" font-size="14.00">updated_at :datetime</text>
</g>
<!-- UserType&#45;&gt;User -->
<g id="edge48" class="edge"><title>UserType&#45;&gt;User</title>
<path fill="none" stroke="#81eb2f" d="M1093.1,-829.927C1082.24,-814.114 1069.64,-795.775 1056.48,-776.613"/>
<ellipse fill="none" stroke="#81eb2f" cx="1095.65" cy="-833.646" rx="4.00002" ry="4.00002"/>
<polygon fill="#81eb2f" stroke="#81eb2f" points="1056.47,-776.598 1054.52,-765.807 1053.64,-772.477 1050.81,-768.355 1050.81,-768.355 1050.81,-768.355 1053.64,-772.477 1047.1,-770.903 1056.47,-776.598 1056.47,-776.598"/>
</g>
<!-- Authlogic::Session::Base -->
<g id="node38" class="node"><title>Authlogic::Session::Base</title>
<ellipse fill="none" stroke="black" cx="1358.17" cy="-881" rx="130.108" ry="18.3848"/>
<text text-anchor="middle" x="1358.17" y="-877.4" font-family="Times Roman,serif" font-size="14.00">Authlogic::Session::Base</text>
</g>
<!-- Authlogic::Session::Base&#45;&gt;UserSession -->
<g id="edge42" class="edge"><title>Authlogic::Session::Base&#45;&gt;UserSession</title>
<path fill="none" stroke="black" d="M1358.17,-862.366C1358.17,-816.066 1358.17,-695.691 1358.17,-642.236"/>
</g>
</g>
</svg>
